<?xml version="1.0" encoding="UTF-8"?>
<svg xmlns="http://www.w3.org/2000/svg" version="1.1" xmlns:xlink="http://www.w3.org/1999/xlink" viewBox="0 0 1920 6208.8">
  <defs>
    <style>
      .cls-1 {
        fill: none;
        stroke: #fc55ff;
        stroke-miterlimit: 10;
        stroke-width: 2px;
      }

      .cls-2 {
        isolation: isolate;
      }
    </style>
  </defs>
  <!-- Generator: Adobe Illustrator 28.6.0, SVG Export Plug-In . SVG Version: 1.2.0 Build 709)  -->
  <g>
    <g id="Layer_1">
      <g id="DESIGNED_BY_FREEPIK">
        <image class="cls-2" width="353" height="350" transform="translate(1113.2 213.8) scale(1.5)" xlink:href="../../../Pictures/Screenshots/Screenshot 2024-08-16 204107.png"/>
        <image class="cls-2" width="306" height="246" transform="translate(130.6 2154.5) scale(2.1)" xlink:href="../../../Pictures/Screenshots/Screenshot 2024-08-16 204148.png"/>
        <image class="cls-2" width="381" height="275" transform="translate(912.4 2796.5) scale(2.1)" xlink:href="../../../Pictures/Screenshots/Screenshot 2024-08-16 204944.png"/>
        <image class="cls-2" width="369" height="355" transform="translate(375.5 3769) scale(1.9)" xlink:href="../../../Pictures/Screenshots/Screenshot 2024-08-16 205057.png"/>
        <image class="cls-2" width="467" height="254" transform="translate(130.6 4136.3) scale(.9)" xlink:href="../../../Pictures/Screenshots/Screenshot 2024-08-16 205126.png"/>
        <image class="cls-2" width="308" height="342" transform="translate(752.9 1126.6) scale(1.3)" xlink:href="../../../Pictures/Screenshots/Screenshot 2024-08-15 170336.png"/>
        <image class="cls-2" width="482" height="388" transform="translate(194.8 3584.5) scale(.8)" xlink:href="../../../Pictures/Screenshots/Screenshot 2024-08-16 205020.png"/>
      </g>
      <image width="383" height="265" transform="translate(1413 4937)" xlink:href="656565656-59-1.png"/>
      <image width="301" height="62" transform="translate(598.9 4490.6) rotate(27.9) scale(3.1)" xlink:href="656565656-59-2.png"/>
      <g id="Layer_4">
        <path class="cls-1" d="M1252.1,673.1c14.7,19.3,28.8,21,33.1,21.3,6.5.4,13.3-1.6,26.8-5.5,7.3-2.1,13.5-4.4,21.7-7.5,9.8-3.6,16.3-6.4,18.1-7.1,19.6-7.8,28.6,2.8,53.5-2,8.6-1.6,17.3-3.3,18.9-8.7,2.9-9.9-21.4-23.4-19.3-26.8,1.3-2.2,13,.3,14.2,5.5,1.2,5.3-8.7,12.4-16.9,15.7-11.9,4.8-19,1.2-33.5,2.4-18.8,1.5-30.5,11.2-31.5,9.4-.8-1.4,7.1-5.1,15.4-14.6,12.6-14.4,10.5-24.3,18.9-26.8,1.3-.4,1.4-.2,24,2.8,5,.6,7.5.9,8.7-.4,3.6-4-2.8-19.1-10.6-20.1-3.5-.4-6.1,2.1-9.8,5.1-12.3,10-16.7,9.3-26,16.1-17.3,12.7-16.7,25.9-27.6,36.6-22.4,22.1-65.6,16.6-67.7,9.1-1.2-4.2,10.8-6.5,27.2-24.8,11.3-12.7,13.1-19.9,20.5-21.3,12.9-2.3,26.2,17.1,26.4,16.9.4-.4-19.1-8.8-20.9-22-2.3-17.4,24.6-40,41.7-37,1.5.3,2.8.7,3.5.9,13.8,4.6,22,18.3,20.5,19.9s-16-4.7-18.9-14.6c-3.7-12.6,12.7-26.8,25.6-39.8,44.6-44.7,34.2-69.9,56.7-75.6,26.5-6.7,46.6,23.1,72.8,10.6,4.5-2.1,8.1-5.9,15.4-13.4,6.9-7.1,35.9-38.4,37.4-76,.3-7.6-.6-13.8-4.7-18.1-4.9-5.1-11.4-4.6-20.1-6.3-18.3-3.6-25.1-16.9-29.9-13.8-3.5,2.3-2,9.8-2.4,9.8s-2.5-14.1,1.7-31.1c2.3-9.4,4.8-18.9,12.5-22.5,3-1.4,7.1-2,8.3-.4,1.3,1.8-2.1,5.4-5.1,13.4-1.4,3.8-.4,6.1-2.4,8.3-2.2,2.4-5.5,2.6-6.7,2.8h-.7c-5.4.5-23.6,14.7-34.7,15.7-9.2.8-16.8-7.3-17.7-8.3-16.6-17.7-6.4-64.6,17.7-71.3,9.1-2.5,22.5,0,29.1,8.7,11.1,14.6-4.1,37.8,9.1,60.2,2.2,3.7,4.7,6.6,5.1,7.1,10.1,11.6,23.2,14.8,27.2,16.1,22.4,7.9,30.4,43.6,31.1,63,1,25.4-10.5,46.9-12.6,46.5-1.8-.4,3.7-17.2,3.9-43.3.3-36.7-10-67.5-14.2-79.5-9.2-26.9-18.1-38.2-17.3-61,.2-4.6.7-8.7-1.2-14.2-5.7-16.9-28.2-30.2-48.4-26.8-16.8,2.9-30.1,17-28.3,20.5,1.2,2.2,11.1-.6,31.1-6.3,6.1-1.7,10.8-3.3,11-5.9.2-2.1-2.6-4.7-4.3-4.3-2.9.7-4.8,9.7-1.2,14.6,1.8,2.5,4.6,3.2,5.5,3.5,10.9,3.5,20.9,19.4,24,28.7,6.2,18.6-9,27.9-1.6,41.7,5.8,10.8,21,16,22.4,14.2.8-1-.9-4.7-3.5-6.3-7.5-4.6-23.9,4.3-32.3,16.9-4.3,6.5-2.3,7.6-7.1,15.4-6.8,11-18.9,21.7-24.8,18.9-2.2-1.1-1.3-3-4.3-10.6-4.3-10.9-8.4-12.5-13-24.8-2.3-6-1.3-5.7-2.4-7.1-8-10.9-34.5,8.7-67.7,5.9-32.6-2.8-49.3-25.2-64.2-15.4-.5.4-7,4.7-6.3,9.4,1.5,10.4,36.8,18.2,68.9,15.4,32.6-2.9,50.2-15.8,65.4-4.7,3.1,2.3,5.4,6,9.8,13.4,12.6,20.9,27.4,55.7,18.1,63-1.8,1.4-2.8.4-11.8,0-22-1.1-27.6,4.3-37.8-.8-5.8-2.9-9.2-7.3-10.2-8.7-5.1-6.8-4.6-12.4-7.1-19.3-4.4-12.4-14.4-21.6-16.5-20.5-3,1.6,8,24.7,5.5,26-1.8.9-17-40-27.3-38.2-.3,0-1.3.2-2.2,1.1-5.4,5.8,10.9,30.2,11.1,30.1s-9-20.8-21.6-24.6c-1.3-.4-2.2-.5-2.7,0-3.3,3.4,19.8,32.6,20.1,32.4.2,0-6.4-12.4-18.8-17.9-1.4-.6-5.5-2.5-6.4-1.4-2.3,3,23.1,25,22.4,25.9,0,.1-12.8-13.7-15.7-11.8-.4.3-.6.8-.6,1.9.2,7.2,11.4,14.2,14.6,16.1,13.7,8.3,20.3,6.6,29.8,14.8,2.9,2.5,8.3,7,7.5,8.4-.8,1.4-7.4-2.2-18.4-5.8-19.8-6.6-29.8-9.9-41.5-10.3-2.5,0-7.4-.1-10.7-3.5-3.4-3.4-3.3-8.5-3.3-9.9-.2-18.5-19.3-61.4-17.6-62,2-.7,25.8,54.2,26.2,63,0,.7,0,3.7,2.1,5.6,1.3,1.2,3,1.6,4.3,1.9,2.3.5,4.1.4,4.5.4,3.9-.2,13.4-.6,16.3,3.1,3.1,3.9-2.7,10.9.2,13.6,2.5,2.3,8.4-1.3,9.7.6.8,1.2-1.1,3.1-3.3,7.6-1.4,3-3.5,7.2-3.5,11.4s2,6.9,5.6,12c6.7,9.4,10.2,9,12,14.5,2,6.4-1,12.6-2.5,15.7-3.1,6.4-9.5,13.5-12.8,12.2-2.8-1.1-.3-6.9-3.5-17.4-2.4-7.8-4.8-8.1-7.9-17.1-2.8-8.3-3-15.1-3.1-15.1-.3,0-.3,9.6,2.7,21.5,2.4,9.5,4.2,10.7,5.4,16.9,2.1,11.2-1.5,20.6-3.5,26-5.9,15.6-20.1,34.8-28.7,32.2-4-1.2-5.2-6.6-9.7-27.9-5.8-27.7-4.3-22.9-8.5-40.7-3.8-16.2-5.9-20.8-3.5-28.3.6-2.1,3.9-11.6,13.6-16.7,9.1-4.8,20.6-4.1,28.1,1,6.6,4.5,4.4,8.6,13.6,16.1,3.6,2.9,7.3,4.8,14.7,8.5,7.1,3.6,9,3.8,10.5,3.1,2-.9,2.7-2.8,5.2-11.4,3.7-12.9,4.2-16.1,7.4-18.4,2.3-1.6,3.3-.9,8.3-2.3,8.3-2.3,12.5-6.4,15.7-8.3,4.8-2.7,14.7.8,33.7,6.2,4.8,1.3,9.6,2.8,13.8.4,2.8-1.6,4-4.1,5.8-7.6,0,0,4.6-8.9,10.1-17.8,6.5-10.4,10-9.5,17.1-21.1,2.7-4.3,6.4-11.4,5.4-12.2-1.2-.9-7.8,6.7-8.5,7.4-3.5,4-5.3,6.1-4.8,7.6.9,2.6,6.7,1.7,16.1,3.5,5.1,1,11.9,2.2,16.3,5.4,7.5,5.3,8.3,15.9,9.1,27.9,1.5,23.8-5.5,31.4-.8,49.2,1.5,5.9,2.3,5,7,16.3,9.5,22.8,19.1,56.7,11.4,61.2-2.7,1.5-7.2-.7-9.1-2.1-4.8-3.3-5.8-9.3-6.2-11.2-1.7-8.1-6.3-9.7-24.8-31.6-17.6-20.9-25.7-34-37-35.1-1.2-.1-2.4,0-2.9.6-2.9,4.2,22.3,26.8,33.7,37,12,10.8,16.5,13.9,22.9,22.5,6.8,9.2,10.3,17.4,11.8,21.1,2.8,7.1,4.3,10.6,4.5,15.3.7,12.2-7.2,24-15.9,30.6-14.6,11-33.4,8.5-46.9,6.8-6.9-.9-6.2-1.6-15.5-2.9-19.9-2.8-22.6.3-35.5-1.7-10.4-1.6-31.7-4.9-41.3-19.4-2.5-3.8-5.6-10.4-11.8-11.8-.5-.1-5.9-1.2-8.5,1.7-.7.8-1.4,2.1-1,2.5.5.6,2.9-.7,3.9-1.2,7.4-3.9,11.4-9.3,11.4-9.3,11.5-15.3,64-68.9,59.9-72.7-1.2-1.1-7.6,2.2-11.4,7.4-7.6,10.5-3.1,25.8,2.1,42.6,6.3,20.2,17.8,23.6,17.6,39.1,0,6.8-2.1,8.6-.4,13.8,3.4,10.7,16.2,17.6,27.1,19.2,4.7.7,8.2.3,8.9.2,40.2-4.4,156-2.6,156-2.6,11.4.2,17,.3,22.5,4.4,18.4,13.7,6.7,52.2,4.4,77-8.8,93.3,99.6,132.2,102.1,225.8,1.5,57.8-37,100.7-46,110.9-73.5,83.1-209.2,58.1-262.3,48.7-153.5-27.2-165.9-145.4-251.5-137.9-136.4,11.9-219.2,296.6-243.2,286.6-10.4-4.3-2.8-60.5,3.9-61.2,1.4-.1,3.6,2,4.1,4.2.6,2.8-1.6,5.9-3.9,7.5-3.7,2.5-8.1,1.5-12.3.5-4.7-1.1-9.3-2.2-11-6.1-1.6-3.7-.2-9,2.1-9.6,1.9-.5,4.3,1.9,5.3,3.8,1.3,2.3,1,4.7.9,5.3-.8,8.3-2.5,53-.9,60.2,0,.6.7,2.9-.4,3.8-.7.5-1.7.3-2,.2-5.8-1.3-16.2,4-21.7-.9-2.7-2.4-3.6-6.6-3.8-7.8-.6-2.8,0-4.4-1.3-7.1-1-2.2-2.3-3.5-3.3-4.5-3.2-3.2-5.4-7.2-8.2-10.8-3.7-4.9-12.5-20.5-13.8-40.8-.6-9.4-1.2-20.1,4.6-31.8,7.8-15.5,21.7-22,27.2-24.6,5.7-2.7,21.5-9.8,40.8-4.5,5.4,1.5,20,6.4,29.9,20.8,6.7,9.7,8.1,19.1,8.9,24.4,2.5,17.5-3,31.2-5.7,37.5-6.7,16.1-18.4,26.7-18.4,26.7-6.7,6.5-16.4,13.5-15.4,21.7.3,2.3,1.3,4,.2,5.6-2,3-8.9,1.2-15.4.6-1.3-.1-16.1-1.3-24.4,2.6-1.2.6-2.6,1.4-2.7,2.6,0,1.6,2.4,3.1,4,3.9,7.8,4.1,12.8,6.7,21.1,7.4,7.5.6,13.1,1.7,17.2-1.9,1-.8,2.1-1.9,2-3.1-.4-4.3-15.9-8.4-29.2-5.1-6.9,1.7-11.9,5.1-14.8,7.5-1.7,2-1.8,3.5-1.8,4.4.5,6.8,16.8,12.2,30,12.2s6.4,1.1,11-1.2c1-.5,3.4-1.7,3.3-3-.2-2.4-8.4-3.6-11.5-4-7.4-1.1-26.2-3.9-29.7,3.6-1.2,2.7,0,5.6.4,6.6,4.4,11,25,15,39.6,9.6,2.2-.8,5.4-1.4,5.3-2.5,0-2-11.6-4.2-22.5-3.1-4.3.5-17.2,1.8-18.8,8.1-.6,2.6.9,5,1.4,5.8,5.9,9.2,21.2,7.6,26,5.9,2-.7,3-1.6,3.6-2.6.7-1.4.9-3.5-.2-4.7-1.1-1.3-3-1.2-4.4-1.1-1,0-6,.4-8.2,4.2-2.8,4.8.5,12.1,4,12.8,2.9.6,5.1-3.6,6.6-2.8,2.5,1.2-1.2,13.1-2.5,21.2-1.4,9.4,1.5,19.4,6.8,39,6.4,23.8,7.7,21.1,9.7,32.6,3.1,17.5,1.7,31.8.7,41.2-.7,6.5-2.6,15.6-6.4,33.8-5.2,24.9-7.7,32-4.4,42.4,1.5,4.9,4.6,11.5,3,12.6-1.1.7-3.9-1.4-5.7-3.5-5-5.9-4.9-16.1-1.2-23.9,3.8-8,8.5-7.6,11.8-15,3.4-7.6,1.6-15.1.7-19.2-4.8-22.9-6.5-57.5-6.4-71,0-30.2,8.4-45.8-1.7-66.6-1.1-2.3-5.5-11.3-8.9-10.6-1.6.3-3.9,2.8-4.9,22.2-1.6,28.3,2.8,32.5.2,46.6-3.8,21.2-18,36.1-18.7,35.8-.7-.4,6.6-16,6.4-16s-10.5,31.4-20,30.6c-3.8-.3-7.7-5.3-6.9-7.2.9-1.9,8.1-1.7,9.4,1,1.3,2.7-2.9,8.7-8.1,9.9-6.9,1.5-14.8-5.4-14.3-10.1.2-2.2,2.4-4.4,4.4-4.4s5.5,4.4,4.9,7.9c-.6,3.6-4.7,6.7-7.6,6.4-8.1-.8-11.2-22.5-12.8-34.3-.6-4.2-1-8.6,1.5-10.4,2.8-2,7.7.7,8.6,1.2,4.3,2.4,3.2,6,7.6,9.9,1.5,1.3,5,4.2,8.6,3.2,2.9-.8,4.7-3.8,5.2-6.2,0-.7.9-4-1-5.9-1.6-1.6-3.6-.5-6.9-1.5-3-.9-5.9-3.2-7.2-5.9-2.5-5.3.3-14,6.4-16,5.4-1.7,10.4,2.6,11.3,3.5,3.3,2.9,6.5,8.4,4.7,12.3-.8,1.8-2.8,3.4-3.9,3-1.6-.6-1.3-5.5-.7-8.4.7-3.5,2-10.2,8.1-12.6,4.9-1.9,10.8-.3,13.8,3.2,2.5,3,1.5,5.5,2.2,14.5,1,12.6,3.8,16.5,1.7,18-2.8,2.1-8.6-4.9-22.9-9.1-6.8-2-12.7-3.7-17.3-.5-3.8,2.6-5.4,7.7-4.9,11.8.8,7.2,8,11.6,11.6,13.8,3.4,2.1,4.1,1.6,8.4,4.2,4.2,2.6,7.7,4.7,9.6,7.9.8,1.3,2.7,5.1-1.5,21.2-3.3,12.9-5.2,12.8-5.2,18.5s0,15.8,10.4,21c6.6,3.3,13.2,1,13.8.7,8-3,11-11.4,13.1-17.3,3-8.4,2.6-15.3,2-27.4-.6-10.4-.8-15.7-3.5-21.7-3.2-7.3-7.7-11.5-14.3-17.5-7.8-7.1-19.8-17.7-38.5-21.9-10.9-2.5-16.3-3.7-21.2-1.2-17.8,9.2-20,57.8-2.7,87.3,5,8.5,10.9,14.3,11.8,25.4.5,6.4-.5,15.1,2.7,28.4.5,2.1.9,3.5,1,3.7,3.4,11.8-38.9,117-121.6,181.6-175.5,137.2-585.6,133.1-632,3.7-21.8-60.8,35.8-152.1,99.5-169.2,88.4-23.7,199.4,92.5,248.8,194.1,46.5,95.4,20.7,141.1,54.7,186.6,109,145.6,530.5-19.9,574.8-37.3,236-92.7,292.3-187.3,406.8-158,129.4,33.1,236,199.8,205.3,314.8-40.9,152.8-333,246.6-546.1,191.6-115.1-29.7-208.5-103.2-287.4-56-47.8,28.6-58.4,82.5-128.1,110.7-20.1,8.1-74.8,34.7-113.2,11.2-9.1-5.6-9.6-9.2-20.2-19.8-10.2-10.2-81.1-48.3-192.7-53.7,0,0-21.3-1-71.2,13.5-5.1,1.5-13.5,4.1-14.4,9.6-.8,4.6,2.5,11,8.1,12.2,6.5,1.3,12.8-5.2,12.2-7.7-.4-1.3-2.7-1.8-4.1-1.8-4.1,0-6.7,4.3-7,4.8-2.5,4.3.1,9.6,3.3,16.2,3.9,8.1,8.7,18.1,19.9,23.2,3.7,1.7,5.9,3.2,8.5,2.6,4.1-1,6.3-5.7,7.4-8.1.8-1.8,2.3-5.1,1.8-8.8-.8-5.7-5.6-9.3-7.4-10.7-2.2-1.7-9.7-9.9-24.7-26.2-17.3-18.8-20.3-32-32.8-35.8-1.1-.3-4.2-1.1-10.3-2.9-9.7-2.8-14.5-4.2-15.5-4.8-5.6-3.1-5.6-6.8-15.8-27.6-5.3-10.8-7.9-14.9-6.3-16.6,2.3-2.4,11,2.4,12.5,3.3,10.8,6.1,23.3,18.8,26.9,37.2,2.3,11.5-1.5,11.8,1.5,20.6,5.4,15.9,19.9,22.1,17.7,28-1.4,3.7-8,4.2-9.6,4.4-23.2,2.6-89.2,43-119.4,98.4-6.1,11.2-26.1,49.1-19.5,96.9,10,72.7,74.6,119.8,125.3,137.1,30,10.2,55.3,10.1,75.2,10,65.9-.4,128.2-24.8,140.1-31.3.6-.3,6.7-3.7,15.5-6.3,8.2-2.4,12.3-3.6,16.2-2.2,8.8,3,11.9,15.5,14.4,25.4,1.9,7.8,3.6,14.7,1.1,16.2-4.3,2.6-22.6-9.9-24.3-27.3-.1-1-1.3-15,7.4-22.5,5.8-5,11-2.8,15.1-8.5.6-.8,3-4.3,3.1-9.3,0-1.7,0-4.9-2.3-7.7-1.3-1.5-4.2-4-6.3-3.3-4.1,1.3-3.5,12.9-3.3,16.6,1.5,31.5,45.5,71.2,53.8,65.2,3.8-2.8-.6-14.9-4.1-24.3-7.4-20.4-28.8-24.1-32.4-41.6-.4-1.7-.7-4.3-1.8-8.8-1.4-5.8-3.2-12.7-6.6-19.2-1.6-3-8.3-15.4-21.4-20.6-9.2-3.7-12.6-.2-19.5-4.8-4.7-3.1-6.8-7.4-11.1-15.8-5.2-10.4-5.4-15.4-11.8-26.2-5.1-8.5-6.6-8.2-7-8.1-1.5.5-2.2,4.4-1.1,7.4,1.1,2.9,3.7,4.2,4.8,4.8,0,0,6.5,3.4,19.2,12.9,2.7,2,14,10.5,14.4,22.1.1,3.9-1,10.6-4.8,11.8-2.1.7-5.1-.3-6.6-2.2-1.8-2.2-.6-4.1-2.2-5.5-1.6-1.4-3.7-.5-8.1-.4,0,0-1.7,0-7.7-.7-9.2-1.2-25.7-53.6-41.3-85.9-12.5-25.7-21.9-33.5-35.4-68.2-.7-1.8-12-15.3-7.7-22.1,2.5-4.1,9.1-3.4,11.4-8.6,1.5-3.4.2-7-.9-9.8-9.2-23.8-13.8-35.7-22.5-37.9-6.5-1.7-8.9,2.2-13.9.3-6-2.3-7.9-13.6-12.1-35,0-.5-.3-1.7-.3-3.3,0-3.2,1.2-5.6,1.5-6.2,2.2-5-2.3-14-3.6-16.6-4.3-8.8-13.9-20.6-18.1-18.7-5.6,2.5-3.7,30,8,35.8,2.9,1.5,11.2,3.9,17.2,8.6,1.4,1.1,2.5,2.2,2.7,2.4,3.6,3.6,5.2,7.2,5.9,8.6,5.4,11,11.4,12.1,11,17.8-.4,5.1-5.2,5.3-7.4,11.6-1.2,3.5-1,7,3.3,19,5.9,16.5,8.9,24.8,14.2,27.6,6,3.1,12.3-3.6,17.8.3,2.3,1.6,3.1,3.9,3.6,5,8.9,22.8,44.5,73.2,48.9,88.3.1.5.6,2.2,2.1,3.6,3.4,3.1,9.2,2,11.6,1.5,3.9-.8,16.1-4.3,20.7-16.6.2-.6,5-14-3.6-24.9-7.2-9.2-18.3-9.4-21-9.5-2.7,0-14-.7-19.9,6.8-.5.6-1.8,2.4-2.7,5.3-4.3,14.6,9.4,35.5,15.4,44.7,1.3,2,4.1,6.2,3.9,11.6-.2,4.7-2.6,8.1-3.9,9.8-4.2,5.7-12.5,12.5-19,10.4-4.7-1.6-6.7-7.3-7.4-9.2-3.6-9.7-3.9-3-40.3-51.8-17.5-23.6-20.5-31.1-29-40.6-3.6-4-6.3-8.7-9.8-12.7-2.8-3.2-5.4-5.9-5.7-10.1,0-.9-.3-3.9,1.5-6.6,1.1-1.6,2.5-2.5,5.3-4.1,3.4-2,5.1-2.9,6.7-3,4.1-.2,7.3,4.3,9.8,7.8,5.6,7.8,11.4,15.5,16.8,23.5,7,10.3,7.4,9.5,13.7,19.2,3.8,5.8,4.2,7,10.6,17.7,10.6,17.9,11.8,18.6,16.1,26.6,5,9.2,7.7,16.2,11.5,25.9,5.9,15.1,8.9,22.8,9.2,31,.3,7.1-.9,9.1.5,14.1,2.9,10,11.6,20,16.3,18.5,7.9-2.5,3.9-37.1,14.7-50,2.4-2.9,5.4-4.9,5.4-4.9,6.4-4.2,13.2-4.3,15.2-4.3,14.1-.4,40.6-7.6,50-10.9,4.1-1.4,39.3-14.3,45.6-42.9,1.1-5.1,4.2-18.8-2.7-30.4-4.9-8.2-12.8-12.1-12.5-20.6,0-.7.3-5.4,3.8-9.2.7-.8,5.7-6,11.4-4.3,3.6,1,4.5,5,7.6,12.5,4.8,11.8,6.8,13.3,8.7,18.5,4.9,13.3,5,38.7-8.7,58.7-11,16-26,21.8-44.6,28.8-26.3,10-63.3,17.7-66.3,10.3-2.4-5.9,63.8-14.1,84.8-59.8,2.2-4.7,9-16,6.5-29.9-.3-1.9-1.9-9.7-8.2-17.4-1.5-1.8-11.7-13.9-28.8-14.7-15.3-.7-29.4,8-36.4,20.1-9.9,17-6.7,41.7,9.8,53.2,12.9,9,31,8,42.4,0,21.9-15.3,18.9-56.2,2.2-78.2-4.8-6.3-9.8-9.8-29.3-21.2-42.6-24.8-46.9-31.3-58.1-32.1-4.9-.3-25-1.7-36.9,12.5-10.4,12.3-10.7,31.6-2.2,45.6,7.1,11.7,21.7,22.3,39.1,19.6,16.7-2.6,27.6-16.4,31-28.8,6.5-23.8-13.1-47.2-31.5-54.9-1.9-.8-5.1-2-21.7-3.3-17.2-1.4-36.8-2.8-63.6-.5-22.2,1.9-40.1,5.5-51.1,8.2-7.8,1.8-39.5,9.7-79.9,29.9-45.2,22.7-51.3,35.8-53.2,40.8-1.3,3.2-8,20.5,1.1,36.4,10.5,18.4,33.2,19.5,34.2,19.6,25.6.8,49.9-23.8,48.9-47.3,0-1.3-1-16.5-13-26.1-13.9-11.1-32.3-6.6-39.1-4.9-23.1,5.7-36.4,23.2-46.7,36.9-9.7,12.8-24.2,32.1-26.6,60.9-.7,7.9-4.1,49.4,23.4,69.6,3.4,2.5,21,15.3,40.2,8.2,13.9-5.2,23.1-18.8,24.5-32.6,1.9-19.8-11.9-38.7-31-44-16.5-4.6-34.7,1.4-44,13.6-12.4,16.2-5.2,38.1,1.1,57.1,2.4,7.3,14.1,40.5,49.4,67.4,19,14.4,42.4,32.2,69,25.5,2.3-.6,30.6-8.2,36.9-34.2,3.8-15.7-.7-36.7-17.9-47.3-15.6-9.6-35.1-6.8-47.8,3.3-15.3,12.1-18.6,33.1-14.1,47.8,9.9,32.2,59.2,40.2,79.9,43.5,30.5,4.9,53.5-.7,65.7-3.8,21.6-5.5,37.5-9.5,47.3-24.5,8.6-13.2,12-34.2,1.6-48.4-15.4-21-56.1-20-72.3,2.2-8.5,11.8-9.5,28.5-3.3,41.3,11.5,23.4,44.8,27.5,66.8,20.6,19.1-5.9,39.4-23,41.8-46.2,1-9.8-3.6-11.1-3.8-23.9-.3-16.7,6.6-39.4,21.2-45.6,16.1-6.9,36.3,8.3,46.2,15.8,5.9,4.5,112.8,87,88.6,182.6-28.8,113.5-216.8,144.7-271.2,94.2-14-13-27.9-39.5-19.5-60.9,8.5-21.8,38-33.1,60.9-29.2,24.8,4.2,37.3,25.5,51.2,41.4,36.3,41.8,78.8,44.2,141.3,65.8,135.6,46.8,124.8,99,214.4,117,114,22.8,159.1-56.2,238.8-34.1,128.2,35.5,146.7,302,165.7,297.3,3.9-.9,4.2-11.4,4.4-16.1.8-18.3,16.2-149,27.1-176.4,2.5-6.3,5.9-9.7,8.4-11.6,7.2-5.4,15.7-5.2,18.1-5.2,28.6.2,170.1-26.9,220.3-42,15.4-4.6,31.8-5.1,47.2-9.7,10.6-3.1,23.3-7.6,31.7-1.3,3.8,2.9,5.3,6.9,5.8,8.4,12.7,35.1-28.8,260.2-22.6,283.7.2.9,2.6,9.3,0,18.7-1.5,5.5-3.7,7.7-4.5,8.4-4.3,3.9-10.1,3.9-13.6,3.9-4.4,0-10.2-.6-10.3-1.9-.1-1.6,7.5-1.4,12.3-6.5,5.2-5.5,4.1-14.3,3.9-16.8-3.3-34.9,10.8-69.6,11-104.7.5-83.9,19-183.2,16.8-183.5-4.1-.5-39.1,229.5-37.5,244.9,0,.8.8,5.6-1.3,11,0,0-1.8,4.6-5.8,8.4-8.8,8.3-23.2,2.2-43.3,0-8.1-.9-4.6.1-34.9,0-30.8-.1-47.9-1.2-69.1-1.9-59.4-1.9-51.5,2.6-83.4,0-21.5-1.8-43.9,3.4-64.6-2.6-2.5-.7-10.8-3.3-14.9.6-2.7,2.7,1.3,7.3-1.3,14.2-1.6,4.3-3.8,4.9-3.9,7.8-.1,5.2,7,9.2,9,10.3,24.1,13.7,160.6,11.4,228.7,15.5,1.3,0,6.1-1.7,9.7.6,2.4,1.6,3.6,4.5,4.5,9.7,2,11,3.3,18.5-.6,24.6-2.1,3.3-4.9,4.8-22.6,9.7-18.3,5.1-27.5,7.6-36.2,8.4-7.5.7-14.7.2-29.1-.6-2.8-.2-27.2-1.8-59.4-9-7.4-1.7-11-2.7-11-3.9,0-3.1,24.6-6.2,44.6-7.1,22.9-1.1,32,1,38.1-5.8,4.9-5.5,7.3-15.8,3.2-21.3-15.7-21.4-130.3,29-127.3,40.7.4,1.4,2.4,2,9.7,3.2,39.2,6.8,66.8,4.4,67.2,7.1.4,2.9-30.7,8.2-51,16.2-1.5.6-5.7,2.3-11.6,3.2-8,1.3-14.4.4-17.4,0-18.1-2.6-27.1-3.9-36.2-5.8-18.5-4-34.8-6.4-60.7-10.3-20.8-3.1-26.4-3.4-26.5-5.2-.3-4.1,29.1-11.3,58.8-12.3,17.6-.6,22.1,1.4,61.4,6.5,0,0,1.7.2,92.4,9.7,2.8,4.4,3.4,9.2,1.3,12.3-2.3,3.4-7,3.7-10.3,3.9-8.5.5-10.7-3.5-18.7-3.9-3.8-.2-7.9,1.2-16.2,3.9-10.9,3.6-12.4,5.9-19.4,7.8-7.7,2-14.1,1.4-20,.8-66.2-7.4-116.6-20.4-116.6-20.4-4.9-.3-12.4-1.2-12.7-3.3-.3-2.5,9.2-5.7,12.9-6.9,31.7-10.4,60.4-6.7,60.4-6.7,137.1,16.7,183.6,19.5,196.7,18.1,3.2-.4,18.5-2.5,36.5,3,1.5.5,10.2,2.6,10,3.8,0,.6-2.3.7-8.9,1.3-7.6.7-11.5,1.1-13.7,1.7-1.4.4-4.9,2.1-12,5.7-7.7,3.9-9.4,4.8-12.7,5.9-1.2.4-4.7,1.5-9.4,2-5.5.7-18,2.1-20.9-3.3-1.6-3.1.3-7.1.8-8.2,10-20.5,61-13,66.4-12,.6.1,4.1.8,8.2,2.8,3.6,1.9,7.7,3.9,8.5,7.9.6,2.8-.4,6.2-2.7,8.4-3,2.9-6.3,1.5-17.6,2.5-2.5.2-6.6.6-11.9,1.7-4.2.8-6.6,1.6-12.2,2.5-1.9.3-3.7.6-6.2.8-2.7.3-4.7.3-11.4.3-8.6,0-9-.3-9.2,0-2.4,3.6,38,48.8,87.9,70.4,88.6,38.3,209.6,3.3,222-44.4,3.7-14.3-1.2-34.3-14.3-44.4-13.8-10.7-35.2-9.2-49.2,0-24.6,16.1-20.7,52.2-20.5,53.9,4.8,39.7,45,46.5,52.2,76.1,12.3,50.1-82.4,113.2-93.5,120.5-79.7,52.1-207.7,91.1-347.2,57.1-118.7-28.9-145.9-86.4-229.9-76.1-67.5,8.2-68,74.6-161.7,104.6-8.8,2.8-106.8,33.3-136.4-6.3-10.5-14.1-14-39.3-1.6-55.5,10.8-14.2,30.9-17.7,46-14.3,3.3.8,21.2,4.9,28.5,20.6,5.6,12.1,1.8,24.3,0,30.1-10.4,33.5-56.7,49.2-80.9,60.3-105.7,48.3-201.6,184.7-233.6,189.3-8.7,1.2-17.5,1.5-17.5,1.5-5.4,0-15.3.5-25.2-1-2.4-.4-38.9-6.5-43.2-24.9-.3-1.4-.4-5.1-.6-12.6-.2-9,0-15.7,0-17,2.3-82.1,0-101.8,0-101.8-.1-1.2-.6-4.3,1.3-6.9,2.2-3.2,6.6-3.7,10.7-4.1,10-.9,18.3-.9,23.9-.6,8,.3,9.3,1,14.1.6,4.3-.4,5.9-1,8.2-.3,5,1.5,8.3,10.4,8.8,11.9,9.4,30.2-1,106.1.6,117.8.1.8.6,4-.6,7.5,0,0-1.3,3.6-4.7,6.6-10.7,9.4-55.6-.6-55.6-.6-13.6-1.9-55.7-7.8-74.8-7.9-.4,0-2.6,0-5.3,0-11.1,0-20.2,0-31.1.6-4.4.2-7.6.5-9.7.6-88.6,6.6-101,4.5-102.8-.6-.8-2.4.9-4.9,2.5-7.2,28.8-42.5,33.3-65.4,43.7-63.8,12.8,2,14.1,38.2,23.9,38,7.4-.1,10-20.6,17.6-20.4,6.1.2,12.4,13.5,18.9,27,3.4,7.1,4.8,11.3,7.2,11.3,5.5,0,7.2-20.7,13.5-21.1,3.1-.2,5.4,4.5,11,14.8,9.8,18.1,14.8,27.2,17.3,27.7,11.2,2.1,32.7-30.7,33-64.7,0-2.3,1.8-7-.6-11-2.9-5-11.2-8.6-17.9-5-5,2.7-7.5,8.4-6.9,13.5.9,7.7,8.7,12.9,15.7,12.6,8.4-.4,12.8-8.5,13.5-9.7,4.1-7.5,3.2-17.4-.6-22.3-12.4-16.1-53.5,3.1-61.9,7.9-2.2,1.3-5.6,3.5-6.6,7.2-1.2,4.5,1.1,9.6,4.7,12.6.4.4,5.1,4,11,2.8,6.6-1.4,12.6-8.4,11-15.1-1.1-4.6-6-7.2-8.8-8.5-34-16-94.3-18.9-94.3-18.9-25.2-1.2-37.8-1.8-41.2-.6-1.7.6-7.4,2.9-12.3.3-3-1.6-4.5-4.5-5-5.7-3.7-7.6,1.9-12.3.9-24.5-.5-6.8-2.6-9.4-.6-11.9,2.5-3.2,8.2-2.6,12.6-2.2,10.4.9,21-.6,31.4,0,29,1.6,43.5,2.4,54.1.3,4.6-.9,12.5-2.7,16,1.3,2.2,2.5,1.7,6.1,1.3,10.4-2.1,20.6,1.9,21.9-.6,26.4-7.6,13.2-37.8-4.8-73.2,10.1-13,5.4-15.6,10.6-23.9,9.4-16.5-2.4-28.6-26-31.7-44.3-.8-4.6-.6-6.3-.3-28,.4-29-3.1-31.5.3-37.1,10.1-16.8,45.7-18.2,53.4-7.5,1.4,1.9,2,4.4,5,6.6,6,4.4,14.1,2.6,16.3,2.2,32.5-6.4,66.2,0,99.3-1.6,65.3-3.2,91.8,3.4,111.2-.9,10.2-2.3,21,0,31.4-.9,1,0,3.7-.4,5.7,1.3,2.6,2.1,2.5,6.2,2.5,7.5,0,5.7-.9,107.5.9,141.4,1.2,21.3-5.7,43.3-.9,64.1,0,.4.5,1.9-.3,3.1-2.4,3.7-13.3.6-15.4,0-9.9-2.6-21.7.4-150.2,1.3-117.6.8-108.4-1.8-116.9,0-8.3,1.8-38.4,8.8-43.1-.3-1.1-2.1-.5-4.4-.3-5,6.6-26.6-2-54.9-1.9-82.3.3-73.3-4.2-106.9,7.5-110.6,1.6-.5,1.8,0,9.7.6,17.7,1.3,27.4-2.1,28-.3,1,3.1-27.2,12.1-26.1,17.6.8,4.2,18.9,7.6,34.9,1.9,10.6-3.8,19.3-11.3,21.4-9.1,1.6,1.6-2.7,6.5-.6,10.1,2,3.5,8.5,3.2,10.4,3.1,19.4-.7,85-1,103.4-.6,21.7.5,43.9-4.8,65.1,0,1.7.4,7.4,1.8,9.7-.9,2-2.3,1.3-7.2-1.3-9.7-3.2-3.2-9-2.2-10.7-1.9-28,4.6-56.8-1.2-85.2-.3-44.4,1.4-51.1-3.3-81.4-.6-.8,0-12.8,1.1-28.9.6-6-.2-30.3-1-30.5-4.1-.2-2.3,13-5.6,24.5-6.6,13.3-1.2,23.4.7,24.8.9,27.9,4.9,82.2-.4,188.9-.9,26.6-.1,63.4,11.1,68.2.3,1.2-2.7-.4-4.8,1.1-16.9,1-8.2,2.2-11.7,0-15-2-2.9-5.4-3.8-9.5-4.7-5.1-1.2-18-5-21.7.4-1.4,2.1-1.4,5.2,0,7.1,1.2,1.7,3.5,2.3,11.5,2.4,11.6.1,12.8.9,14.2-.4,2.8-2.6,3.3-9.2.4-12.6-5.3-6.1-18.6,1.6-42.7,4.7-7.6,1-11.2.9-32.8.8-67.1-.3-60.4.7-87.7,0-29.9-.8-49-1.3-75.8-3.6-19.7-1.7-41-4.1-68.7,2-3.8.8-13.7-.5-20.9,5.9-4.9,4.3-6.6,10.1-7.5,13.8-6.9,30.3,2,118.3.8,171.8-.2,10.4-.5,20.9-2,31.2-.3,1.9-1,6.9,1.6,11.9.3.6,1.6,2.9,4.3,5.1,5.5,4.4,12.3,5.1,18.6,5.1,11,0,19-2.1,23.7-3.2,5.1-1.1,10.2-1.8,36.3-1.2,36.3.8,57.8,2.8,82.6,3.6,26.1.8,17.4-1,59.3-.8,33.2.2,67.2-7.6,99.5,0,4.7,1.1,16.2,4.1,20.5-1.2,3.7-4.4-.2-11.9-2.4-22.5-2.6-12.7-.8-19.7.8-37.9,5.6-63-5-105.8.8-130.4.3-1.4,1.3-5.3,0-9.9-3.2-11-17.1-15.7-19.8-16.6-10.6-3.6-19.9-2.2-21.3-2-70.8,10.2-143,.5-214.5,2-25.4.5-28.6-1.4-35.2.4-1.2.3-4.9,1.4-8.7,0-3.9-1.5-3.6-4.6-7.1-6.7-4.9-3-12.9-1.7-16.9,2.7-2.1,2.4-3.8,6.4-2.4,8.3,1.2,1.5,3.6.4,10.1.2,8.2-.2,10.1,1.4,12.9-.3,4.1-2.5,4.4-8.9,4.5-10.1,1.2-14.2,36.4-48.3,65.5-64.9,35.9-20.6,76.4-18.2,156.6-15.2,51.7,1.9,93.5,7.5,96.8-3.5,1.2-4-3.1-9.3-6.5-11.7-9.3-6.7-26.3-2.6-29.9,5.3-4.6,10.2,12.8,27.1,21.7,35.8,72.5,70.5,284.7,71.4,331.3,168.3,22.2,46.2-.9,98.3-6.5,110.8-26.2,59.1-95.1,106.8-124.9,90.9-2-1.1-4.8-8.9-9.4-8.8-1.3,0-1.7.6-3.5.9-2,.3-4.6.1-9-2.2-8-4.2-18.4-13.2-21.2-15.6-5.5-4.6-12.2-7.7-17.3-12.7-.6-.6-2.6-2.6-3.9-2.1-.8.4-.9,1.8-1,2.2-.5,6,14.5,10.8,13.6,14.3-.2.9-1.3.6-3.7,2.2-.9.6-5.9,3.9-6.6,9.3-.1.8-.6,4.2,1.6,6.9,2.3,2.9,6.8,4.1,8,2.8,1.2-1.4-.8-5.8-3.8-7.6-.9-.6-2.3-1.1-2.5-.8-.3.4,1.9,2.5,2.1,2.7,2.5,2.3,7.5,5.9,9.2,4.5,1.4-1.1,0-5-1.3-7.3-1.6-2.8-4.5-5-5.1-4.6-.4.3.2,1.8.5,2.7,2.7,6.7,11.2,14.8,16.1,12.5,1.4-.7,2.1-2,2.5-2.8,1.7-3.3.6-7.2-1-9.6-3.1-4.7-10.2-6.3-11.6-4.5-.5.7-.5,2.2,4.6,9.3,8,11.3,17.6,25,24.2,22.9,3.4-1.1,4.9-6,5.2-7,.8-2.6,1.1-6.8-.6-7.6-1.1-.5-2.7.5-2.9.6-2.5,1.8-2.8,5.6-2.8,8.9,0,11.1,0,16.6,2.8,20.4,5.7,7.6,17.4,11.2,21.9,7.3,2.4-2,2.2-5.8,2.1-7.6-.7-18,.5-36.1-.2-54.1-.4-10.8-.8-19.8.7-32,0,0,2.4-20.3,0-36.6-.3-1.8-.9-5.4-3.5-8.6-.8-.9-2.9-3.2-9.3-5.5-9-3.3-12.1-1.4-15.9-4.2-3.3-2.4-4-5.9-5.5-12.6-.6-2.9-1.4-7.2,0-26.9.7-9.8,1.1-11.9,2.9-14.1,4-5.1,11-5.7,13.9-6,10.2-.9,11.6,4.2,26.9,7.1,9.5,1.8,13.8.8,18.1,4.9,3.3,3.1,4.4,7.1,5.1,10.2,3.5,15.7,1.5,28,1.1,44.1-.1,4.8.1,1.5.4,28.5.2,14.5.2,24.1-6.4,30.7-2.8,2.8-6.2,4.2-6.2,4.2-4.7,1.8-8.9.9-11.3.4-15-2.8-17,1.8-29.6-2-5.7-1.7-11.1-3.4-13.9-8.4-1.4-2.5-1.4-4.6-1.1-12.4.1-3.1.8-18.7.7-30.7,0-5.2-.3-8.1-2.2-11-3-4.6-8.2-6.1-10.8-6.8-19.7-5.5-37.3-8.4-37.3-8.4-16.7-2.8-25-4.1-33.5-6.8-7.5-2.4-14.6-5.2-24.7-4.4-4.5.4-10.1.9-13.9,4.9-4.7,4.8-4.1,12-3.8,19.6.6,12.8-.5,25.6.4,38.4,1.6,22.5-.8,18.4.2,44.1.5,13.8,1.4,22.4.2,36.6-1.1,13.8-.7,15.7-2.2,17.7-3.9,4.9-12,5.7-28.2,7.3-11.2,1.1-8.9-.2-20.7.9-6.8.7-10.2,1.3-14.1-.4-6.6-3-9-10.2-9.3-11-1.2-3.7-.7-6.2,0-12.4.6-6,.9-10.8,1.3-20.3.8-17.1-1.1-14.5.2-22.5.7-4.6,1.7-7.9-.2-10.2-2.4-2.7-7.5-1.7-9.9-1.3-14.8,2.6-34.1,3.5-45.7,2.9-1.2,0-10.1-.6-21.4.4-4.4.4-7.7.9-10.4,3.3-4.1,3.6-4.3,9.5-4.4,12.4-.6,20.4-.9,30.6-.7,38,.7,20.8,1.1,31.3,0,39.5-.8,5.6-2.3,14.2,2.2,21.8.8,1.4,3.1,5.2,7.7,7.5,3.8,1.9,7.3,1.8,11,1.5,10.5-.6,18.1-1.8,24.5-2.6,11.6-1.6,17.5-2.3,19.9-2.4,5.7-.2,10,0,15-2.6,4-2.2,6.6-5.2,7.1-5.7,2.1-2.5,3.2-4.9,3.5-5.7,1.5-3.5,1.6-6.4,1.8-9.3.2-4.7.4-7.8-1.3-11-1.8-3.4-4.6-5.1-6-6-5.9-3.5-10.5-2-27.4-.9-12.3.8-14.7.3-18.3,2.9-5,3.6-7.2,9.4-7.9,11.5-1.9,5-2,9.3-2,11-.4,39.3.6,43.3-.2,55.6-.7,11.5.7,23.1.4,34.6,0,1.2-.1,4.7,2,7.9,1.5,2.3,3.4,3.4,5.1,4.4.8.5,4.5,2.6,10.2,3.3,9.3,1.1,18.8-3.1,21.4-4.2,7.9-3.3,18.7-5.9,40.4-11,11.6-2.7,8.9-1.4,28.9-5.5,31.7-6.5,24.2-7,38.8-9.3,13.1-2,25-2.6,28.5-9.7.7-1.6,1.5-4.3,2-6.4,1.3-6,1-10.8.9-12.6-.7-10.3-1-29.8-.9-40.8,0-7.5-1.2-15-1.1-22.5,0-1.1,0-4.4-1.5-7.9-.5-1.1-1.6-3.5-4-5.3-1-.8-2.8-1.9-9-2.6-4.9-.6-8.4-.9-13,0-4.1.8-8.7,1.8-11.7,5.3-3.2,3.9-2.8,8.8-2.4,14.6.6,9.2,0,18.4,1.1,27.6.4,3.3.2,14.9-.2,38.2-.3,19.6,3,39.5-.7,58.7-.2.9-1.4,7,.4,14.1,1.5,5.9,3.8,8.1,4.4,8.6,3,2.7,6.9,3.2,10.6,3.3,12.6.3,23.4-4.8,24.5-5.3,3.4-1.6,15.5-5.6,39.5-13.5,20.1-6.6,40.2-11.9,40.2-11.9,17.1-4.5,23.7-5.6,30.5-11.9,1.6-1.5,9.5-9.7,11.5-22.3,1.1-6.8-.1-11.1-1.1-17.7-.9-6.1-.6-16.1,0-35.7.7-25.4,1.1-38.1,1.9-40.1,8.9-20,40.8-30,66-26.7,37.7,5,64.6,40.7,70.9,73.7,3.4,18,.3,32.2-1.4,39.3-10.8,45.9-52.3,82.7-70.2,75.8-5.7-2.2-12.4-10.1-11.9-17.6.3-4.9,3.8-8,4.2-8.4,4.8-4.2,12.2-3.8,16.9-.7.9.6,4.3,3,6.3,9.8,4.5,15.5-5.3,32.7-7.7,36.5-24.2,37.6-155.7,9-245.1,38.6-19.4,6.4-39.5,16.5-44.2,33.7-.6,2.2-3.9,15,3.5,21.8,6.6,6,19.4,5.3,26-2.1,3.7-4.2,6.4-11.7,3.5-16.9-5.2-9.3-27.6-9.5-44.2-2.1-20.8,9.2-18,23.9-37.9,33-23,10.5-48.1.7-49.9,0-13.5-5.5-13.9-11.6-35.8-23.2-11-5.8-17.9-9.5-27.4-11.2-18.1-3.4-29.2,3.1-47,7-48.2,10.6-55.9,3.2-58.3,0-1-1.3-2.1-4.9-4.4-12.3-2.4-7.8-4-14.4-5.3-20.7-5-24-4.5-32.1-9.9-34.2-2-.8-3.8-.2-7.5.8-4.4,1.2-6.7,3.1-17.5,12.9-6.7,6-10,9.1-10.8,13.5-.5,2.8.2,4.7.3,5.2,1.1,2.9,3.2,3.8,6.4,6.2,6,4.5,5.3,6.6,11.7,11,2.4,1.7,5.9,4.1,7.1,3.1,1.3-1,0-4.8-1-6.9-2.9-6.2-7.3-6.7-10.7-13.6-1.1-2.3-1.2-3.4-1.2-4.1,0-3.4,2.6-5.6,5.5-8.6,2.5-2.5-1.6,1.3,11.9-14.8,4.9-5.8,5.5-6.4,5.7-8.1.7-4.7-2.7-8.3-.5-11.4.9-1.3,2.3-1.8,2.5-1.9,0,0,2.5-.8,5.8,1.3,7.1,4.5,11.4,37.2,13.6,52.6,2,13.4,3.6,21.8,7.1,22.3,1.7.2,2.6-1.4,8.9-7.5,5.5-5.2,8.2-7.9,11.9-10.7,6.6-5.1,11-6.6,12.2-11.4.2-.7.5-2,.1-3.6-.8-3.2-3.7-4.4-7.5-7-1.4-1-4.2-3.5-9.8-8.5-6.2-5.5-8.2-7.9-9.6-7.3-1.3.7-.9,3.9-.9,4.3.3,2.4,1.4,3.9,3.3,6.4,3.5,4.6,6.2,8,7.8,12.1.3.8.7,2,.4,3.5-.4,2-2,3.2-2.9,4-2.7,2.3-4.4,5.5-6.7,8.2-4.1,4.9-6.1,7.4-6.7,8.7-.6,1.3-2.7,6-1.9,11.8.3,2.4.8,2.4.8,3.8-.3,6-8.8,9.9-9.8,10.3-1,.5-10,4.4-18.3.2-1.5-.7-2.6-1.6-8-7.8-7.8-8.9-11-13.6-17.5-19.7-4.2-3.9-6.2-5.2-8.7-5.9-5.4-1.7-12.3-.7-13.3,2.2-.6,1.7,1.1,3.7,2.1,4.9,10.4,12.6,25.1,36.6,26.8,39.8.2.3.6,1.2,1.5,2,2.4,2.2,5.7,2.1,7,2.2,6.4.3,13.3,4.6,13.1,6.2-.3,2.3-17.3,2.6-32.2.4-8.3-1.2-16.5-2.4-25.8-7.1-3.4-1.7-2.8-1.8-13.1-7.6-4.7-2.6-8.7-6.5-13.7-8.4-1.5-.5-4.1-1.4-4.5-3.3-.4-1.6,1-3.2,1.8-4.2.2-.3,3.7-4.3,8.4-4.2,3.7,0,6.2,2.7,9.6,6,7.2,7.1,12.2,12,18.4,15.7,6.3,3.8,13.3,6.2,16.9,7.4,4.3,1.4,6.7,1.7,6.7,2,0,.5-10.3.4-20.7-4.1-1.5-.7-7.8-3.5-13.2-8.5-.6-.5-1.1-1.1-4.8-4.5-1.8-1.7-3.2-2.9-6-5.6-2.4-2.2-4.3-4-4.8-4.5-9.5-8.8-8.5-9-12.5-12.2-6.6-5.3-10.7-6.3-11.8-10.8-.2-.6-.6-2.5.2-4.6,1.3-3.5,5-4.6,5.5-4.7,2.9-.8,5.5.1,7.1.8,10.1,4,16.5,9.5,16.5,9.5,10.4,8.7,15.6,13.1,20.1,19.6,1.1,1.5,6.7,9.6,12.6,17.9.9,1.2,2.9,3.9,6.5,6.2,4,2.5,8.3,3.2,8.5,2.7.4-.9-13-3.8-23.5-15.5-2.6-2.9-3.4-4.5-8.7-13-9.1-14.6-10.4-17.2-14.1-21.8-.8-.9-1.5-2.2-3.1-4.6-2.6-4.1-3.2-5.7-2.7-7.3.4-1.1,1.2-1.8,1.4-2,1.5-1.2,3.5-.9,5.7-.4,4.3.9,7.4,1.7,10,3.2,14.8,8.6,56.7,68.5,58.7,74.1,0,.2.3,1,1.1,1.6,1.1.9,2.4.7,3.5.8,2.1.1,2.9,1,5.3,2.1,1.5.7,3.9,1.2,8.6,2.3,5.7,1.3,8.6,2,11.5,2.2,2.7.2,5.2.2,8.2-.1,11.8-1,36.5-5.6,42-6.5,7.7-1.2,24.3-3.9,40.7,2.8,16.8,6.9,35.7,24.4,44.2,32.3,4.3,4,10.9,10.5,15.8,8.6,1.1-.4,2.4-1.4,5.9-11.2,2.4-6.8,4.5-12.7,5.9-21.8.7-4.5,2.4-14.7.7-15.2-1.5-.5-5.1,7.2-7.3,11.9-5.1,10.9-3.3,16.9-7.3,19.1-2.5,1.4-5.9,0-12.5-2.6-3.1-1.2-6.3-2.9-12.7-6.3-7.2-3.9-7.6-4.3-9.3-4.7-4-1-8.5-.4-14.8,2.6-12.7,6.2-17.1,15.3-24.2,21.5-12.9,11.3-29.6,7.9-41.8,8.9-46.4,3.7-51.9,72.5-119.5,110.4-9.7,5.4-52.3,29.4-73.3,12.2-12.6-10.3-20.1-33.6-9.2-51.9,10.9-18.2,34.1-21.6,48.8-16.8,16.4,5.4,24.5,21.8,27.5,27.5,35.2,66.1,161.7,127.4,196.4,100.8,8.4-6.5,14.7-20.6,11-31-3.2-8.9-14-15.4-23-14-14.3,2.3-20.4,24.3-22.4,31.7-11.7,42.3,17.9,102.4,62.4,133.2,53.1,36.7,123.9,33.5,171.4,4.6,5.7-3.5,21.6-30.5,32.1-27,.2,0,1.5.8,4.2,2.3,10.7,5.9,12.6,7.5,16.9,8.6,4.4,1.1,8.8,1.1,9,.4.3-1.2-10.6-5.4-23.4-13.4-1.3-.8-2.5-1.6-2.6-2.8-.4-3.7,9.6-6.8,24.1-15.3,14.6-8.6,14.4-11.4,14.3-12.2-.6-2.9-6.6-3.9-8.3-4.2-28-4.8-59.6,44.7-62.5,49.3-8.6,13.7-10.5,21.6-7.6,27.5,2.8,5.6,9.3,7.9,10.4,8.3,7.6,2.7,14.7.2,20.8-2.1,0,0,22.1-5.7,38.6-16.7.9-.6,2.3-1.6,2.1-2.6-.2-1.3-3-1.9-3.2-1.9-7.8-1.6-29.3,30-22.2,38.6,1.8,2.2,4.9,2.2,10,2.1,1.9,0,25.3-.7,38.9-19.9,2-2.7,10.5-14.8,6.2-20.8-2.8-3.9-9.7-3.7-13.9-2.5-10.9,3.2-13.7,16.4-13.9,17.4-1.5,7.8.3,18.5,7.2,22.7,7.3,4.5,13.1-2.8,23.1-.9,19.2,3.7,22.4,35.4,33.8,34.9,10.6-.5,14.9-27.8,26.4-27.1,3.8.2,9.8,3.7,14.1,6.2,4.3,2.5,7.3,4.8,8.1,4.1.8-.7-.6-3.7-2.1-5.8-5.4-7.6-14.6-6.5-15-9.3-.6-4.1,18.9-6.5,35.6-22,2-1.9,6.5-4.1,6-6.3-.6-2.7-7.4-3.3-9.2-3.5-18.7-1.8-48.8,22.8-63.1,56.5-3.8,9-8,19.2-3.5,24.5,1.6,1.9,6.5,5.8,37.9-3.9,23.3-7.2,47.3-14.8,71.9-35.6,9.1-7.7,24.5-22.4,22-26.2-2.1-3.2-15.6,2.1-22.7,5.5-13.7,6.5-23.8,15.5-35.2,28.5-15.4,17.5-35.2,44.6-31.9,47.6,1.6,1.4,14.2-8.7,27.1-19,3.1-2.5,6.8-5.5,12.5-6.5,1.6-.3,12.9-2,16.4,4.8,2.1,4.2-1.2,9.4-5.3,15.9-4,6.4-8.8,13.9-16.9,16.4-1.7.5-4.2,1-4.6,2.6-.7,2.3,3.4,5.5,5.1,6.7,8.2,5.4,16.5-1.1,33.3-2.3,13.1-.9,12.7,2.7,30.2,2,12.2-.5,22-1,25.6-7.4,2.3-4.3,1.6-10.4-1.5-14.1-5.3-6.1-16.2-3.7-22.3-2.3-14.6,3.3-38.8,15-38.4,32.8.2,9.3,7.1,15.6,7.9,16.4,13.1,11.6,34.9,2.6,38.2,1.3,7.6-3.1,7.7-5.3,14.9-9.2,20.2-11,49.5-9.6,54,.5,2.9,6.4-4.4,15.8-10.5,23.6-7.9,10.1-18.8,18-20.2,16.6-1.1-1.1,3.1-7.8,6.1-11.5,17.2-21,58.7-22.8,64-11.8,3.5,7.3-8.7,20.5-14.1,26.4-7.9,8.5-18.6,16-20,14.6-1.3-1.4,4.8-12.3,14.6-18.7,17.6-11.4,43.5-5.9,44.8.8,1.2,6-16.9,15.9-23.1,30-.6,1.4-1.5,3.9-.5,5.9,2,4,10,3.7,13.1,3.6,20.5-.8,41-16.3,39.7-19-.7-1.4-7.9.2-13.1,3.1-2.1,1.1-11.2,6.1-12.8,16.4-.2,1.3-1.6,10.2,3.6,14.9,6.3,5.6,18,.8,27.7-3.1,8.2-3.3,21.4-8.7,26.9-21.5,1.1-2.6,4.5-10.4.8-14.9-3.2-3.9-10.2-3.3-14.3-1.8-10.4,3.8-12.8,16.9-13.1,18.7-.4,2.2-2.4,13.6,5.1,21.3,4.4,4.4,9.7,5.3,14.9,6.1,3.9.6,18.5,3,26.6-6.1,2-2.3,5.2-7,3.8-8.7-2.8-3.6-27.5,3.5-32.5,21-.2.7-3.5,12.9,3.1,19.2,7.2,6.8,20.9,1.7,30.5-1.8,7.2-2.7,20.2-7.7,27.2-20.5,1-1.9,7-12.9,2.6-17.9-3.6-4.1-11.8-1.7-12.3-1.5-8.2,2.5-13.7,11.2-14.6,19.2-1.4,11.5,6.3,24.5,18.7,27.7,12.7,3.2,26-4.9,28.9-14.3.7-2.1,1.5-6.6-.3-7.7-5.9-3.6-36.3,33.3-33,36.9,2,2.2,17.6-7.1,27.7-13.1,9.4-5.6,15.8-10.3,24.8-9.5,2.2.2,6.4.7,9.2,3.8,5.2,6,.3,17.3-.3,18.4-4,9-10.3,10.2-10.5,16.9,0,3.3,1.3,7.6,4.4,9.2,3.8,2.1,8.8-.5,17.9-5.4,4.7-2.5,7-3.8,10.5-6.4,11-8.3,88.1-27.5,130.2,5.9,44.8,35.5,2.3,92.5,46,142.9,40.8,47,130.9,58.7,184.2,23.5,2.2-1.5,24.6-11.8,23-20.6-.9-5.5-11.5-13.4-17.8-14-.5,0-2.5-.2-4.1-1.5-1.9-1.6-3.2-4.6-2.1-6.2.7-1.1,2.4-1.4,5.2-1.3,9,.3,14.1,3.8,23.8,5.8,1.2.3,2.9,1.2,5.2.9,3.3-.4,5.5-2.9,7.1-4.5,3.7-3.9,8.4-6.8,12-10.7,5.8-6.3,15.9-16.2,26.4-23.4,1.4-.9,5.2-3.5,6.9-8.2.4-1.1,1.6-4.5.2-7.5-1.7-3.6-6.3-4.7-8.2-5.2-12.7-3.2-23.9-10.9-36.1-15.9-10.5-4.3-15.6-6.6-20.6-12-2.7-2.9-6.2-5.2-5.8-8.2.4-3,4.5-4.8,5.8-5.4,15.5-6.7,55,10.1,80.1,20.4,2.5,1,8.1,3.2,14.2,1.5,4.1-1.2,6.1-3.4,10.1-7.1,13.9-12.8,23.6-17.1,27-18.5,7.6-3,10.9-2.4,12.9-1.3,2.9,1.5,5.1,4.8,5.2,8.2,0,3-1.7,5.1-5.8,9.4-7.4,7.8-10.9,10.6-15.7,15.7-4.8,5.1-7.3,7.8-9.4,12-3.3,6.4-3.7,12.5-3.9,18-.4,18.6,3.1,30.9,6,51.9.6,4.2,1.4,9.1,2.1,18.9,0,1.1.4,5-.9,9.7-.8,2.9-1.8,7.1-4.9,8.2-2.1.7-4.1-.2-4.9-.6-6-2.9-8-11-8.8-14.4-4.6-19.5-12-38.2-17.4-57.5-.6-2.1-2-7-4.9-7.5-2-.3-3.8,1.5-4.5,2.1-8.7,8.5-29.8,24.1-33.5,26.8-2,1.5-8.7,6.4-15.7,13.7-2.1,2.2-4.2,4.6-4.9,8.2-.5,2.5,0,3.6,1.1,10.7,1.5,9.4,1.2,11.4.4,13.3-.5,1.1-1.9,4.8-5.4,5.6-3.2.7-5.8-1.5-6-1.7-2.5-2.2-2.9-5.8-1.9-8.4,1-2.8,3.4-4.2,4.5-4.7,5.1-2.7,10.8-1.2,13.3-.4,14.9,4.3,27.9,12.4,27.9,12.4,11.5,7.2,21.8,13.7,31.6,17.6,14.2,5.7,26.2,5.6,38.4,5.6,31.5-.2,58-10.1,75.1-18.5"/>
      </g>
    </g>
  </g>
</svg>