<?xml version="1.0" encoding="UTF-8"?>
<svg xmlns="http://www.w3.org/2000/svg" version="1.1" viewBox="0 0 1920 5377.69">
  <defs>
    <style>
      .cls-1 {
        fill: none;
        stroke: #fc55ff;
        stroke-miterlimit: 10;
        stroke-width: 2px;
      }
    </style>
  </defs>
  <!-- Generator: Adobe Illustrator 28.6.0, SVG Export Plug-In . SVG Version: 1.2.0 Build 709)  -->
  <g>
    <g id="Layer_1">
      <g id="Layer_4">
        <path class="cls-1" d="M1285.53,482.32c15.87,20.83,31.08,22.66,35.72,22.99,7.02.43,14.35-1.73,28.92-5.94,7.88-2.27,14.57-4.75,23.42-8.09,10.58-3.89,17.59-6.91,19.53-7.66,21.15-8.42,30.87,3.02,57.74-2.16,9.28-1.73,18.67-3.56,20.4-9.39,3.13-10.69-23.1-25.26-20.83-28.92,1.4-2.37,14.03.32,15.33,5.94,1.3,5.72-9.39,13.38-18.24,16.94-12.84,5.18-20.51,1.3-36.16,2.59-20.29,1.62-32.92,12.09-34,10.15-.86-1.51,7.66-5.5,16.62-15.76,13.6-15.54,11.33-26.23,20.4-28.92,1.4-.43,1.51-.22,25.9,3.02,5.4.65,8.09.97,9.39-.43,3.89-4.32-3.02-20.61-11.44-21.69-3.78-.43-6.58,2.27-10.58,5.5-13.28,10.79-18.02,10.04-28.06,17.38-18.67,13.71-18.02,27.95-29.79,39.5-24.18,23.85-70.8,17.92-73.07,9.82-1.29-4.53,11.66-7.02,29.36-26.77,12.2-13.71,14.14-21.48,22.12-22.99,13.92-2.48,28.28,18.46,28.49,18.24.43-.43-20.61-9.5-22.56-23.74-2.48-18.78,26.55-43.17,45-39.93,1.62.32,3.02.76,3.78.97,14.89,4.96,23.74,19.75,22.12,21.48-1.62,1.73-17.27-5.07-20.4-15.76-3.99-13.6,13.71-28.92,27.63-42.95,48.13-48.24,36.91-75.44,61.19-81.59,28.6-7.23,50.29,24.93,78.57,11.44,4.86-2.27,8.74-6.37,16.62-14.46,7.45-7.66,38.75-41.44,40.36-82.02.32-8.2-.65-14.89-5.07-19.53-5.29-5.5-12.3-4.96-21.69-6.8-19.75-3.89-27.09-18.24-32.27-14.89-3.78,2.48-2.16,10.58-2.59,10.58-.54,0-2.7-15.22,1.83-33.57,2.48-10.14,5.18-20.4,13.49-24.28,3.24-1.51,7.66-2.16,8.96-.43,1.4,1.94-2.27,5.83-5.5,14.46-1.51,4.1-.43,6.58-2.59,8.96-2.37,2.59-5.94,2.81-7.23,3.02h-.76c-5.83.54-25.47,15.87-37.45,16.94-9.93.86-18.13-7.88-19.1-8.96-17.92-19.1-6.91-69.72,19.1-76.95,9.82-2.7,24.28,0,31.41,9.39,11.98,15.76-4.43,40.8,9.82,64.97,2.37,3.99,5.07,7.12,5.5,7.66,10.9,12.52,25.04,15.97,29.36,17.38,24.18,8.53,32.81,47.06,33.56,67.99,1.08,27.41-11.33,50.62-13.6,50.19-1.94-.43,3.99-18.56,4.21-46.73.32-39.61-10.79-72.85-15.33-85.8-9.93-29.03-19.53-41.23-18.67-65.83.22-4.96.76-9.39-1.3-15.33-6.15-18.24-30.43-32.59-52.24-28.92-18.13,3.13-32.49,18.35-30.54,22.12,1.3,2.37,11.98-.65,33.56-6.8,6.58-1.83,11.66-3.56,11.87-6.37.22-2.27-2.81-5.07-4.64-4.64-3.13.76-5.18,10.47-1.29,15.76,1.94,2.7,4.96,3.45,5.94,3.78,11.76,3.78,22.56,20.94,25.9,30.97,6.69,20.07-9.71,30.11-1.73,45.01,6.26,11.66,22.66,17.27,24.18,15.33.86-1.08-.97-5.07-3.78-6.8-8.09-4.96-25.79,4.64-34.86,18.24-4.64,7.02-2.48,8.2-7.66,16.62-7.34,11.87-20.4,23.42-26.77,20.4-2.37-1.19-1.4-3.24-4.64-11.44-4.64-11.76-9.07-13.49-14.03-26.77-2.48-6.48-1.4-6.15-2.59-7.66-8.63-11.76-37.23,9.39-73.07,6.37-35.18-3.02-53.21-27.2-69.29-16.62-.54.43-7.55,5.07-6.8,10.15,1.62,11.22,39.72,19.64,74.36,16.62,35.18-3.13,54.18-17.05,70.58-5.07,3.35,2.48,5.83,6.48,10.58,14.46,13.6,22.56,29.57,60.11,19.53,67.99-1.94,1.51-3.02.43-12.74,0-23.74-1.19-29.79,4.64-40.8-.86-6.26-3.13-9.93-7.88-11.01-9.39-5.5-7.34-4.96-13.38-7.66-20.83-4.75-13.38-15.54-23.31-17.81-22.12-3.24,1.73,8.63,26.66,5.94,28.06-1.94.97-18.35-43.17-29.46-41.23-.32,0-1.4.22-2.37,1.19-5.83,6.26,11.76,32.59,11.98,32.49.22-.11-9.71-22.45-23.31-26.55-1.4-.43-2.37-.54-2.91,0-3.56,3.67,21.37,35.18,21.69,34.97.22-.11-6.91-13.38-20.29-19.32-1.51-.65-5.94-2.7-6.91-1.51-2.48,3.24,24.93,26.98,24.18,27.95,0,.11-13.81-14.79-16.94-12.74-.43.32-.65.86-.65,2.05.22,7.77,12.3,15.33,15.76,17.38,14.79,8.96,21.91,7.12,32.16,15.97,3.13,2.7,8.96,7.55,8.09,9.07-.86,1.51-7.99-2.37-19.86-6.26-21.37-7.12-32.16-10.68-44.79-11.12-2.7,0-7.99-.11-11.55-3.78-3.67-3.67-3.56-9.17-3.56-10.68-.22-19.97-20.83-66.27-18.99-66.91,2.16-.76,27.84,58.5,28.28,67.99,0,.76,0,3.99,2.27,6.04,1.4,1.3,3.24,1.73,4.64,2.05,2.48.54,4.43.43,4.86.43,4.21-.22,14.46-.65,17.59,3.35,3.35,4.21-2.91,11.76.22,14.68,2.7,2.48,9.07-1.4,10.47.65.86,1.3-1.19,3.35-3.56,8.2-1.51,3.24-3.78,7.77-3.78,12.3s2.16,7.45,6.04,12.95c7.23,10.14,11.01,9.71,12.95,15.65,2.16,6.91-1.08,13.6-2.7,16.94-3.35,6.91-10.25,14.57-13.81,13.17-3.02-1.19-.32-7.45-3.78-18.78-2.59-8.42-5.18-8.74-8.53-18.46-3.02-8.96-3.24-16.3-3.35-16.3-.32,0-.32,10.36,2.91,23.2,2.59,10.25,4.53,11.55,5.83,18.24,2.27,12.09-1.62,22.23-3.78,28.06-6.37,16.84-21.69,37.56-30.97,34.75-4.32-1.29-5.61-7.12-10.47-30.11-6.26-29.9-4.64-24.71-9.17-43.93-4.1-17.48-6.37-22.45-3.78-30.54.65-2.27,4.21-12.52,14.68-18.02,9.82-5.18,22.23-4.42,30.33,1.08,7.12,4.86,4.75,9.28,14.68,17.38,3.89,3.13,7.88,5.18,15.87,9.17,7.66,3.89,9.71,4.1,11.33,3.35,2.16-.97,2.91-3.02,5.61-12.3,3.99-13.92,4.53-17.38,7.99-19.86,2.48-1.73,3.56-.97,8.96-2.48,8.96-2.48,13.49-6.91,16.94-8.96,5.18-2.91,15.87.86,36.37,6.69,5.18,1.4,10.36,3.02,14.89.43,3.02-1.73,4.32-4.43,6.26-8.2,0,0,4.96-9.61,10.9-19.21,7.02-11.22,10.79-10.25,18.46-22.77,2.91-4.64,6.91-12.3,5.83-13.17-1.3-.97-8.42,7.23-9.17,7.99-3.78,4.32-5.72,6.58-5.18,8.2.97,2.81,7.23,1.84,17.38,3.78,5.5,1.08,12.84,2.37,17.59,5.83,8.09,5.72,8.96,17.16,9.82,30.11,1.62,25.69-5.94,33.89-.86,53.1,1.62,6.37,2.48,5.4,7.55,17.59,10.25,24.61,20.61,61.19,12.3,66.05-2.91,1.62-7.77-.76-9.82-2.27-5.18-3.56-6.26-10.04-6.69-12.09-1.83-8.74-6.8-10.47-26.77-34.1-18.99-22.56-27.74-36.69-39.93-37.88-1.3-.11-2.59,0-3.13.65-3.13,4.53,24.07,28.92,36.37,39.93,12.95,11.66,17.81,15,24.71,24.28,7.34,9.93,11.12,18.78,12.74,22.77,3.02,7.66,4.64,11.44,4.86,16.51.76,13.17-7.77,25.9-17.16,33.03-15.76,11.87-36.05,9.17-50.62,7.34-7.45-.97-6.69-1.73-16.73-3.13-21.48-3.02-24.39.32-38.31-1.83-11.22-1.73-34.21-5.29-44.57-20.94-2.7-4.1-6.04-11.22-12.74-12.74-.54-.11-6.37-1.3-9.17,1.83-.76.86-1.51,2.27-1.08,2.7.54.65,3.13-.76,4.21-1.29,7.99-4.21,12.3-10.04,12.3-10.04,12.41-16.51,69.07-74.36,64.65-78.46-1.29-1.19-8.2,2.37-12.3,7.99-8.2,11.33-3.35,27.84,2.27,45.98,6.8,21.8,19.21,25.47,18.99,42.2,0,7.34-2.27,9.28-.43,14.89,3.67,11.55,17.48,18.99,29.25,20.72,5.07.76,8.85.32,9.61.22,43.39-4.75,168.36-2.81,168.36-2.81,12.3.22,18.35.32,24.28,4.75,19.86,14.79,7.23,56.34,4.75,83.1-9.5,100.69,107.49,142.68,110.19,243.7,1.62,62.38-39.93,108.68-49.65,119.69-79.33,89.69-225.78,62.7-283.09,52.56-165.67-29.36-179.05-156.92-271.43-148.83-147.21,12.84-236.57,320.11-262.47,309.31-11.22-4.64-3.02-65.29,4.21-66.05,1.51-.11,3.89,2.16,4.42,4.53.65,3.02-1.73,6.37-4.21,8.09-3.99,2.7-8.74,1.62-13.27.54-5.07-1.19-10.04-2.37-11.87-6.58-1.73-3.99-.22-9.71,2.27-10.36,2.05-.54,4.64,2.05,5.72,4.1,1.4,2.48,1.08,5.07.97,5.72-.86,8.96-2.7,57.2-.97,64.97.11.65.76,3.13-.43,4.1-.76.54-1.83.32-2.16.22-6.26-1.4-17.48,4.32-23.42-.97-2.91-2.59-3.89-7.12-4.1-8.42-.65-3.02-.11-4.75-1.4-7.66-1.08-2.37-2.48-3.78-3.56-4.86-3.45-3.45-5.83-7.77-8.85-11.66-3.99-5.29-13.49-22.12-14.89-44.03-.65-10.15-1.3-21.69,4.96-34.32,8.42-16.73,23.42-23.74,29.36-26.55,6.15-2.91,23.2-10.58,44.03-4.86,5.83,1.62,21.59,6.91,32.27,22.45,7.23,10.47,8.74,20.61,9.61,26.33,2.7,18.89-3.24,33.67-6.15,40.47-7.23,17.38-19.86,28.82-19.86,28.82-7.23,7.02-17.7,14.57-16.62,23.42.32,2.48,1.4,4.32.22,6.04-2.16,3.24-9.61,1.3-16.62.65-1.4-.11-17.38-1.4-26.33,2.81-1.3.65-2.81,1.51-2.91,2.81-.11,1.73,2.59,3.35,4.32,4.21,8.42,4.42,13.81,7.23,22.77,7.99,8.09.65,14.14,1.83,18.56-2.05,1.08-.86,2.27-2.05,2.16-3.35-.43-4.64-17.16-9.07-31.51-5.5-7.45,1.83-12.84,5.5-15.97,8.09-1.83,2.16-1.94,3.78-1.94,4.75.54,7.34,18.13,13.17,32.38,13.17,1.73,0,6.91,1.19,11.87-1.3,1.08-.54,3.67-1.83,3.56-3.24-.22-2.59-9.07-3.89-12.41-4.32-7.99-1.19-28.28-4.21-32.05,3.89-1.3,2.91,0,6.04.43,7.12,4.75,11.87,26.98,16.19,42.74,10.36,2.37-.86,5.83-1.51,5.72-2.7,0-2.16-12.52-4.53-24.28-3.35-4.64.54-18.56,1.94-20.29,8.74-.65,2.81.97,5.4,1.51,6.26,6.37,9.93,22.88,8.2,28.06,6.37,2.16-.76,3.24-1.73,3.89-2.81.76-1.51.97-3.78-.22-5.07-1.19-1.4-3.24-1.3-4.75-1.19-1.08,0-6.48.43-8.85,4.53-3.02,5.18.54,13.06,4.32,13.81,3.13.65,5.5-3.89,7.12-3.02,2.7,1.29-1.3,14.14-2.7,22.88-1.51,10.15,1.62,20.94,7.34,42.09,6.91,25.69,8.31,22.77,10.47,35.18,3.35,18.89,1.83,34.32.76,44.47-.76,7.02-2.81,16.84-6.91,36.48-5.61,26.87-8.31,34.54-4.75,45.76,1.62,5.29,4.96,12.41,3.24,13.6-1.19.76-4.21-1.51-6.15-3.78-5.4-6.37-5.29-17.38-1.3-25.79,4.1-8.63,9.17-8.2,12.74-16.19,3.67-8.2,1.73-16.3.76-20.72-5.18-24.71-7.02-62.06-6.91-76.63.11-32.59,9.07-49.43-1.83-71.88-1.19-2.48-5.94-12.2-9.61-11.44-1.73.32-4.21,3.02-5.29,23.96-1.73,30.54,3.02,35.08.22,50.29-4.1,22.88-19.43,38.96-20.18,38.64-.76-.43,7.12-17.27,6.91-17.27s-11.33,33.89-21.59,33.03c-4.1-.32-8.31-5.72-7.45-7.77.97-2.05,8.74-1.83,10.15,1.08,1.4,2.91-3.13,9.39-8.74,10.68-7.45,1.62-15.97-5.83-15.43-10.9.22-2.37,2.59-4.75,4.75-4.75,3.02,0,5.94,4.75,5.29,8.53-.65,3.89-5.07,7.23-8.2,6.91-8.74-.86-12.09-24.28-13.81-37.02-.65-4.53-1.08-9.28,1.62-11.22,3.02-2.16,8.31.76,9.28,1.29,4.64,2.59,3.45,6.48,8.2,10.68,1.62,1.4,5.4,4.53,9.28,3.45,3.13-.86,5.07-4.1,5.61-6.69.11-.76.97-4.32-1.08-6.37-1.73-1.73-3.89-.54-7.45-1.62-3.24-.97-6.37-3.45-7.77-6.37-2.7-5.72.32-15.11,6.91-17.27,5.83-1.83,11.22,2.81,12.2,3.78,3.56,3.13,7.02,9.07,5.07,13.27-.86,1.94-3.02,3.67-4.21,3.24-1.73-.65-1.4-5.94-.76-9.07.76-3.78,2.16-11.01,8.74-13.6,5.29-2.05,11.66-.32,14.89,3.45,2.7,3.24,1.62,5.94,2.37,15.65,1.08,13.6,4.1,17.81,1.83,19.43-3.02,2.27-9.28-5.29-24.71-9.82-7.34-2.16-13.71-3.99-18.67-.54-4.1,2.81-5.83,8.31-5.29,12.74.86,7.77,8.63,12.52,12.52,14.89,3.67,2.27,4.43,1.73,9.07,4.53,4.53,2.81,8.31,5.07,10.36,8.53.86,1.4,2.91,5.5-1.62,22.88-3.56,13.92-5.61,13.81-5.61,19.97,0,1.83.11,17.05,11.22,22.66,7.12,3.56,14.25,1.08,14.89.76,8.63-3.24,11.87-12.3,14.14-18.67,3.24-9.07,2.81-16.51,2.16-29.57-.65-11.22-.86-16.94-3.78-23.42-3.45-7.88-8.31-12.41-15.43-18.89-8.42-7.66-21.37-19.1-41.55-23.64-11.76-2.7-17.59-3.99-22.88-1.3-19.21,9.93-21.59,62.38-2.91,94.22,5.4,9.17,11.76,15.43,12.74,27.41.54,6.91-.54,16.3,2.91,30.65.54,2.27.97,3.78,1.08,3.99,3.67,12.74-41.98,126.27-131.24,195.99-189.41,148.07-632.01,143.65-682.09,3.99-23.53-65.62,38.64-164.15,107.39-182.61,95.41-25.58,215.2,99.83,268.52,209.48,50.19,102.96,22.34,152.28,59.04,201.39,117.64,157.14,572.55-21.48,620.36-40.26,254.7-100.05,315.47-202.14,439.04-170.52,139.66,35.72,254.7,215.64,221.57,339.75-44.14,164.91-359.39,266.14-589.38,206.79-124.22-32.05-225.02-111.38-310.18-60.44-51.59,30.87-63.03,89.04-138.25,119.47-21.69,8.74-80.73,37.45-122.17,12.09-9.82-6.04-10.36-9.93-21.8-21.37-10.97-10.97-87.57-52.16-207.97-57.96,0,0-22.95-1.11-76.82,14.52-5.48,1.59-14.53,4.45-15.51,10.34-.82,4.91,2.66,11.89,8.75,13.13,7.07,1.43,13.86-5.64,13.13-8.35-.38-1.41-2.89-1.97-4.38-1.99-4.46-.06-7.24,4.62-7.56,5.17-2.64,4.6.12,10.33,3.58,17.5,4.22,8.74,9.41,19.51,21.48,25.06,3.95,1.82,6.38,3.46,9.15,2.78,4.41-1.07,6.75-6.13,7.96-8.75.91-1.96,2.53-5.48,1.99-9.55-.81-6.13-6.09-10.09-7.96-11.54-2.4-1.86-10.49-10.66-26.65-28.24-18.65-20.29-21.96-34.57-35.4-38.58-1.2-.36-4.5-1.23-11.14-3.18-10.42-3.06-15.64-4.58-16.71-5.17-6.07-3.33-6.01-7.34-17.1-29.83-5.76-11.68-8.49-16.09-6.76-17.9,2.48-2.6,11.84,2.64,13.52,3.58,11.69,6.54,25.12,20.24,29.04,40.18,2.43,12.37-1.63,12.71,1.59,22.28,5.78,17.17,21.49,23.84,19.09,30.23-1.48,3.95-8.66,4.59-10.34,4.77-25.09,2.8-96.24,46.36-128.88,106.21-6.59,12.09-28.17,52.97-21.08,104.62,10.77,78.44,80.48,129.31,135.24,147.97,32.36,11.03,59.64,10.87,81.15,10.74,71.08-.43,138.34-26.75,151.16-33.81.6-.33,7.2-3.99,16.71-6.76,8.82-2.57,13.23-3.86,17.5-2.39,9.54,3.29,12.86,16.69,15.51,27.45,2.07,8.38,3.92,15.85,1.19,17.5-4.69,2.85-24.36-10.65-26.25-29.44-.11-1.09-1.42-16.14,7.96-24.26,6.27-5.44,11.82-3,16.31-9.15.63-.86,3.28-4.67,3.29-9.99,0-1.84.01-5.31-2.5-8.3-1.39-1.66-4.49-4.3-6.76-3.58-4.41,1.39-3.77,13.89-3.58,17.9,1.65,33.99,49.14,76.84,58.08,70.41,4.14-2.98-.64-16.03-4.38-26.25-8.04-21.97-31.1-26.04-35-44.95-.39-1.88-.78-4.69-1.99-9.55-1.55-6.23-3.43-13.75-7.16-20.68-1.75-3.25-8.96-16.66-23.07-22.28-9.95-3.96-13.61-.18-21.08-5.17-5.09-3.4-7.37-7.97-11.93-17.1-5.58-11.17-5.78-16.6-12.73-28.24-5.46-9.16-7.17-8.88-7.56-8.75-1.62.53-2.4,4.71-1.19,7.96,1.14,3.08,4.03,4.55,5.17,5.17,0,0,7.03,3.66,20.68,13.92,2.94,2.21,15.13,11.38,15.51,23.87.13,4.26-1.04,11.43-5.17,12.73-2.29.72-5.49-.36-7.16-2.39-1.92-2.32-.61-4.41-2.39-5.97-1.72-1.5-4.02-.5-8.75-.4,0,0-1.84.03-8.35-.8-9.96-1.26-27.72-57.89-44.55-92.68-13.45-27.79-23.66-36.19-38.19-73.59-.74-1.91-12.92-16.56-8.35-23.87,2.73-4.38,9.84-3.69,12.32-9.27,1.63-3.66.19-7.58-.96-10.55-9.9-25.67-14.85-38.51-24.3-40.93-7.03-1.8-9.55,2.37-15.03.32-6.5-2.44-8.51-14.64-13.11-37.73-.11-.54-.36-1.82-.32-3.52.07-3.5,1.31-6.04,1.6-6.71,2.32-5.39-2.44-15.08-3.84-17.91-4.69-9.53-15-22.18-19.51-20.14-5.99,2.71-4,32.4,8.63,38.69,3.18,1.58,12.14,4.23,18.55,9.27,1.52,1.2,2.68,2.36,2.88,2.56,3.85,3.88,5.65,7.75,6.4,9.27,5.81,11.88,12.3,13.02,11.83,19.19-.41,5.48-5.61,5.7-7.99,12.47-1.33,3.79-1.06,7.58,3.52,20.46,6.34,17.83,9.63,26.81,15.35,29.74,6.5,3.33,13.32-3.88,19.19.32,2.44,1.75,3.38,4.26,3.84,5.44,9.6,24.65,48.01,78.99,52.76,95.29.16.55.66,2.37,2.24,3.84,3.64,3.4,9.96,2.11,12.47,1.6,4.19-.85,17.35-4.61,22.38-17.91.24-.65,5.44-15.11-3.84-26.86-7.8-9.88-19.78-10.16-22.7-10.23-2.92-.07-15.12-.71-21.42,7.35-.49.62-1.94,2.58-2.88,5.76-4.64,15.71,10.13,38.33,16.63,48.28,1.43,2.19,4.43,6.65,4.16,12.47-.24,5.06-2.85,8.75-4.16,10.55-4.48,6.18-13.51,13.49-20.46,11.19-5.08-1.68-7.22-7.85-7.99-9.91-3.9-10.42-4.26-3.2-43.49-55.96-18.91-25.43-22.14-33.6-31.34-43.81-3.86-4.29-6.8-9.35-10.58-13.71-3.04-3.51-5.81-6.37-6.18-10.85-.08-.95-.3-4.18,1.63-7.11,1.16-1.75,2.69-2.67,5.71-4.43,3.64-2.12,5.46-3.18,7.23-3.27,4.38-.21,7.92,4.62,10.61,8.4,6.02,8.44,12.28,16.72,18.08,25.31,7.53,11.15,7.96,10.22,14.81,20.76,4.06,6.25,4.58,7.59,11.43,19.13,11.45,19.27,12.75,20.1,17.38,28.69,5.36,9.94,8.26,17.52,12.36,27.99,6.39,16.3,9.59,24.62,9.97,33.45.34,7.64-.97,9.84.59,15.25,3.1,10.78,12.52,21.58,17.59,19.94,8.48-2.74,4.2-40.08,15.83-53.95,2.64-3.15,5.86-5.28,5.86-5.28,6.94-4.58,14.3-4.64,16.42-4.69,15.23-.4,43.86-8.2,53.95-11.73,4.45-1.56,42.43-15.42,49.26-46.33,1.22-5.53,4.5-20.34-2.93-32.84-5.27-8.86-13.83-13.07-13.49-22.28.03-.76.29-5.83,4.11-9.97.77-.83,6.11-6.43,12.32-4.69,3.85,1.08,4.88,5.36,8.21,13.49,5.22,12.74,7.32,14.32,9.38,19.94,5.28,14.38,5.39,41.72-9.38,63.33-11.82,17.29-28.09,23.48-48.09,31.08-28.38,10.79-68.26,19.08-71.54,11.14-2.63-6.36,68.85-15.26,91.48-64.51,2.36-5.12,9.71-17.29,7.04-32.25-.36-2.03-2.04-10.52-8.8-18.77-1.57-1.91-12.63-14.97-31.08-15.83-16.55-.77-31.68,8.61-39.29,21.7-10.66,18.32-7.23,45.01,10.56,57.47,13.88,9.73,33.44,8.63,45.74,0,23.6-16.55,20.4-60.69,2.35-84.45-5.2-6.84-10.59-10.62-31.67-22.87-46.01-26.74-50.57-33.78-62.75-34.6-5.29-.36-26.95-1.82-39.88,13.49-11.25,13.31-11.5,34.11-2.35,49.26,7.64,12.65,23.47,24.08,42.22,21.11,18.03-2.85,29.76-17.73,33.43-31.08,7.05-25.67-14.17-50.97-34.01-59.23-2.03-.84-5.48-2.11-23.46-3.52-18.59-1.46-39.75-3.03-68.61-.59-24,2.03-43.23,5.97-55.12,8.8-8.41,2-42.6,10.42-86.21,32.25-48.84,24.45-55.4,38.65-57.47,43.98-1.36,3.49-8.6,22.09,1.17,39.29,11.31,19.91,35.8,21.08,36.95,21.11,27.61.86,53.88-25.68,52.78-51.02-.06-1.45-1.03-17.77-14.07-28.15-15.05-11.97-34.91-7.08-42.22-5.28-24.98,6.15-39.23,25.04-50.43,39.88-10.42,13.8-26.14,34.63-28.74,65.68-.72,8.56-4.46,53.37,25.22,75.06,3.69,2.7,22.65,16.56,43.4,8.8,15.03-5.62,24.97-20.33,26.39-35.19,2.04-21.33-12.89-41.81-33.43-47.5-17.77-4.93-37.41,1.46-47.5,14.66-13.38,17.5-5.57,41.14,1.17,61.58,2.61,7.91,15.23,43.74,53.37,72.72,20.49,15.57,45.8,34.79,74.48,27.56,2.52-.63,33.05-8.87,39.88-36.95,4.12-16.96-.79-39.59-19.35-51.02-16.78-10.33-37.9-7.32-51.61,3.52-16.51,13.06-20.09,35.75-15.25,51.61,10.63,34.81,63.91,43.34,86.21,46.91,32.89,5.27,57.77-.76,70.96-4.11,23.32-5.91,40.5-10.27,51.02-26.39,9.27-14.2,12.95-36.91,1.76-52.19-16.61-22.68-60.57-21.63-78,2.35-9.22,12.69-10.29,30.81-3.52,44.57,12.45,25.29,48.33,29.67,72.13,22.28,20.63-6.41,42.52-24.87,45.16-49.85,1.12-10.62-3.88-12.03-4.11-25.8-.29-18.02,7.15-42.48,22.87-49.26,17.36-7.49,39.21,8.99,49.85,17.01,6.38,4.81,121.72,93.86,95.59,197.04-31.03,122.51-233.97,156.14-292.68,101.64-15.13-14.05-30.06-42.66-21.04-65.75,9.19-23.52,41.05-35.74,65.75-31.56,26.75,4.53,40.26,27.47,55.23,44.71,39.17,45.11,85.02,47.73,152.54,71.01,146.37,50.47,134.73,106.87,231.44,126.24,122.99,24.63,171.66-60.63,257.74-36.82,138.39,38.28,158.31,325.89,178.84,320.85,4.16-1.02,4.58-12.31,4.8-17.36.85-19.79,17.53-160.82,29.29-190.39,2.72-6.84,6.36-10.5,9.07-12.55,7.72-5.87,16.95-5.6,19.53-5.58,30.86.2,183.61-29.03,237.81-45.33,16.59-4.99,34.3-5.54,50.91-10.46,11.4-3.38,25.14-8.22,34.17-1.39,4.11,3.11,5.69,7.45,6.28,9.07,13.7,37.93-31.1,280.87-24.41,306.15.25.96,2.82,10.05,0,20.22-1.64,5.92-4.01,8.27-4.88,9.07-4.63,4.2-10.86,4.19-14.65,4.18-4.76,0-11.03-.64-11.16-2.09-.15-1.68,8.13-1.54,13.25-6.97,5.6-5.95,4.44-15.43,4.18-18.13-3.6-37.69,11.63-75.11,11.86-112.98.55-90.6,20.53-197.75,18.13-198.06-4.39-.56-42.21,247.72-40.45,264.31.1.91.84,6.09-1.39,11.86,0,0-1.92,4.96-6.28,9.07-9.49,8.96-25,2.37-46.73,0-8.73-.95-5,.14-37.66,0-33.27-.14-51.68-1.34-74.62-2.09-64.16-2.1-55.59,2.8-89.96,0-23.19-1.89-47.39,3.69-69.74-2.79-2.73-.79-11.65-3.55-16.04.7-2.97,2.87,1.38,7.89-1.39,15.34-1.72,4.62-4.12,5.27-4.18,8.37-.11,5.57,7.53,9.89,9.76,11.16,25.96,14.74,173.28,12.35,246.88,16.74,1.44.09,6.56-1.89,10.46.7,2.64,1.75,3.89,4.83,4.88,10.46,2.11,11.91,3.54,19.98-.7,26.5-2.28,3.52-5.3,5.18-24.41,10.46-19.79,5.47-29.69,8.2-39.05,9.07-8.04.74-15.82.26-31.38-.7-3-.18-29.4-1.93-64.16-9.76-7.99-1.8-11.89-2.9-11.86-4.18.09-3.32,26.53-6.65,48.12-7.67,24.76-1.17,34.51,1.11,41.15-6.28,5.29-5.89,7.83-17.09,3.49-23.01-16.94-23.13-140.62,31.26-137.39,43.94.4,1.56,2.62,2.13,10.46,3.49,42.26,7.33,72.08,4.7,72.53,7.67.48,3.18-33.09,8.82-55.09,17.43-1.64.64-6.19,2.46-12.55,3.49-8.67,1.4-15.55.47-18.83,0-19.51-2.78-29.27-4.17-39.05-6.28-19.99-4.3-37.52-6.94-65.55-11.16-22.5-3.39-28.46-3.7-28.59-5.58-.3-4.38,31.38-12.17,63.46-13.25,18.99-.64,23.86,1.55,66.25,6.97,0,0,1.78.23,99.73,10.46,2.97,4.74,3.63,9.89,1.39,13.25-2.45,3.69-7.55,3.98-11.16,4.18-9.23.52-11.56-3.73-20.22-4.18-4.14-.22-8.57,1.25-17.43,4.18-11.74,3.88-13.41,6.4-20.92,8.37-8.36,2.19-15.24,1.52-21.56.82-71.48-7.99-125.81-22.02-125.81-22.02-5.31-.36-13.42-1.25-13.72-3.61-.35-2.73,9.95-6.11,13.9-7.4,34.23-11.21,65.16-7.22,65.16-7.22,147.98,18.03,198.1,21.07,212.26,19.49,3.46-.38,19.99-2.74,39.35,3.25,1.62.5,11.02,2.75,10.83,4.15-.09.7-2.52.79-9.57,1.44-8.23.77-12.4,1.17-14.8,1.8-1.49.4-5.34,2.31-13,6.14-8.35,4.17-10.09,5.16-13.72,6.32-1.32.42-5.09,1.57-10.11,2.17-5.98.72-19.38,2.32-22.56-3.61-1.77-3.3.34-7.69.9-8.84,10.78-22.07,65.79-14.03,71.66-13,.66.12,4.46.81,8.84,3.07,3.92,2.01,8.26,4.24,9.21,8.48.68,3.03-.47,6.74-2.89,9.02-3.28,3.1-6.79,1.58-18.95,2.71-2.75.25-7.16.67-12.82,1.8-4.59.92-7.17,1.74-13.18,2.71-2.06.33-4,.65-6.68.9-2.86.27-5.05.34-12.27.36-9.33.03-9.7-.33-9.93,0-2.63,3.84,40.97,52.65,94.9,75.96,95.57,41.29,226.24,3.61,239.57-47.91,4-15.47-1.33-37.01-15.4-47.91-14.9-11.55-37.95-9.92-53.05,0-26.52,17.42-22.38,56.39-22.16,58.18,5.2,42.86,48.53,50.2,56.38,82.14,13.29,54.05-88.88,122.15-100.96,130.05-86.03,56.26-224.17,98.31-374.76,61.6-126.15-30.75-144.81-89.73-248.13-82.14-67.97,5-155.83,37.45-166.5,90.35-3.83,19.01.95,47.39,21.18,60.72,19.33,12.74,48.82,9.12,66.36-8.47,10.86-10.9,19.79-29.82,14.12-48.01-7.87-25.25-38.52-31.85-48.01-33.89-30.29-6.52-55.73,7.77-72.01,16.94-9.84,5.54-69.42,39.12-83.31,98.84-18.44,79.3,64.75,114.15,46.85,185.79-18.5,74.07-125.31,108.37-134.81,98.1-1.58-1.71-5.1-9.65-10.13-9.49-1.36.04-1.84.65-3.79.95-3.94.61-7.37-1.05-9.67-2.32-8.51-4.71-19.82-14.21-22.92-16.83-5.9-4.98-13.16-8.32-18.67-13.73-.62-.61-2.82-2.83-4.16-2.22-.97.44-1.05,2.16-1.06,2.42-.32,6.48,15.68,13.19,14.7,15.48-.19.44-.84.33-3.97,2.42,0,0-.29.19-.54.37-5.9,4.07-6.61,9.69-6.61,9.69-.12.97-.58,4.55,1.74,7.45,2.48,3.11,7.33,4.41,8.61,3,1.32-1.46-.82-6.23-4.06-8.22-.99-.61-2.47-1.2-2.71-.87-.34.46,1.94,2.63,2.22,2.9,2.69,2.55,8.15,6.34,9.96,4.84,1.47-1.21.03-5.45-1.35-7.83-1.77-3.04-4.83-5.44-5.51-4.93-.46.34.19,1.95.58,2.9,2.93,7.2,12.12,16,17.41,13.54,1.53-.71,2.27-2.15,2.71-3,1.81-3.52.67-7.76-1.06-10.35-3.39-5.06-11.01-6.75-12.48-4.84-.56.73-.5,2.33,4.93,10.06,8.6,12.23,18.97,26.99,26.12,24.66,3.67-1.19,5.3-6.51,5.61-7.54.86-2.83,1.18-7.29-.68-8.22-1.21-.6-2.86.52-3.1.68-2.73,1.89-2.98,6.02-3,9.58-.05,11.83-.08,17.75,3,22.05,5.93,8.28,18.81,12.06,23.6,7.93,2.54-2.19,2.36-6.23,2.28-8.22-.8-19.43.48-38.91-.24-58.35-.27-7.26-.57-19.08.71-34.53,0,0,0,0,0,0,2.11-25.31,1.27-33.48,0-39.53-1.01-4.81-2.07-7.21-3.81-9.29-.82-.99-3.08-3.43-10-5.95-10.88-3.96-13.47-.89-17.15-4.53-3.76-3.72-5.45-11.3-5.95-13.58-.03-.13-.15-.69-.3-1.46-1.88-10.2.69-15.54.3-27.59-.15-4.42-.67-9.07,2.15-13.83.21-.35.49-.82.94-1.41,4.35-5.68,12.02-6.22,15-6.43,2.54-.18,4.56,0,5.99.17,10.2,1.22,13.61,4.65,23.07,7.45,11.39,3.38,14.78.87,19.53,5.24,3.05,2.81,4.05,6.05,5.48,10.96,5.49,18.8,1.38,40.14,1.19,47.63-.03,1.17-.03,2.32-.03,2.32,0,2.63.1,4.6.12,5.02.16,3.18.46,16.53.39,23.38-.22,22.72-5.09,31.33-6.91,33.11-3.04,2.97-6.66,4.52-6.66,4.52,0,0,0,0,0,0-4.3,1.84-9.33.92-12.15.48-1.98-.31-5.63-.89-9.53-1.03-6.74-.25-8.16,1.01-14.07.51-3.62-.3-6.27-1.04-8.32-1.62-5.55-1.58-11.98-3.5-15-9.05-.37-.69-.6-1.25-.74-1.61-2.05-5.21-.84-10.05-.45-11.73,1.32-5.76,1.12-14.87.71-33.1-.13-6.01-.43-8.93-2.38-11.91-3.26-4.97-8.88-6.61-11.67-7.38-21.29-5.91-40.25-9.05-40.25-9.05-17.97-2.97-26.96-4.46-36.2-7.38-8.07-2.55-15.74-5.65-26.67-4.76-4.85.39-10.85.96-15,5.24-3.43,3.53-3.86,7.78-4.05,21.2-.28,19.32-.41,28.98.48,41.44.27,3.79.71,9.03.6,16.39-.08,5.4-.38,7.45-.56,13.14-.22,6.85-.02,11.24.2,18.11,0,0,.57,17.86.24,39.54-.23,15.3-.73,17.12-2.38,19.05-4.38,5.14-13.08,6.05-30.49,7.86-1.61.17-4.33.45-7.95.49-2.52.03-3.37-.08-5.79-.07-3.93.02-6.31.34-8.65.53-7.86.65-11.79.97-15.24-.48-7.02-2.93-9.63-10.72-10-11.91-.76-2.38-.52-6.07,0-13.34.73-10.24,1.12-15.51,1.43-21.91.49-10.27.23-12.5.1-13.44-.11-.8-.43-2.92-.36-5.8.05-2.16.29-3.39.5-5.05.73-5.82,1.13-9.09-.24-10.96-1.81-2.46-6.29-1.93-10.72-1.43-13.52,1.54-35.31,3.85-49.3,3.1-.21-.01-.28-.02-.56-.03-7.07-.38-14.77-.79-22.54.51-5.9.98-8.85,1.48-11.19,3.57-4.39,3.93-4.67,10.25-4.76,13.34-.67,22.01-1,33.02-.71,40.96.81,22.49,1.21,33.73,0,42.63-.82,6.02-2.48,15.3,2.38,23.58.88,1.5,3.39,5.65,8.34,8.1,4.11,2.03,7.91,1.9,11.91,1.67,11.29-.67,19.5-1.93,26.44-2.86,12.56-1.68,18.84-2.51,21.43-2.62,6.14-.25,10.84,0,16.2-2.86,4.34-2.32,7.16-5.64,7.62-6.19,2.29-2.74,3.43-5.29,3.81-6.19,1.58-3.74,1.75-6.86,1.91-10,.24-5.02.4-8.39-1.43-11.91-1.91-3.67-4.97-5.56-6.43-6.43-6.38-3.82-11.38-2.12-29.53-.95-13.29.86-15.87.29-19.77,3.1-5.34,3.85-7.73,10.15-8.57,12.38-1.89,5-2.06,9.2-2.14,11.91-.39,12.6-.59,18.9-.08,29.38.66,13.43.17,23.73-.16,30.63-.59,12.45.67,24.93.48,37.39-.02,1.48-.1,5.16,2.14,8.57,1.6,2.43,3.72,3.72,5.48,4.76,4.57,2.71,8.97,3.37,10.96,3.57,7.95.82,14.96-1.82,23.1-4.53,0,0,15.24-5.06,43.58-11.91,3.79-.91,7.36-1.6,7.65-1.66,3.81-.73,6.55-1.11,8.22-1.36,4.13-.61,7.86-1.39,15.33-2.94,13.42-2.78,20.12-4.17,25.47-6.01,1.13-.39,3.84-1.35,7.64-2.29,4.31-1.07,7.57-1.52,8.8-1.7,16.55-2.37,27.31-3.91,30.72-10.48,1.05-2.02,1.77-5.22,2.14-6.91.37-1.64.93-4.58,1.06-8.3.1-2.67-.06-4.66-.11-5.28-.59-7.82-.97-31.15-.95-44.06.01-8.11-1.32-16.19-1.19-24.29.02-1.21.1-4.72-1.67-8.57-.56-1.22-1.75-3.75-4.29-5.72-1.05-.82-3.07-2.1-9.76-2.86-5.29-.6-9.05-1.02-14.05,0-4.44.9-9.43,1.92-12.62,5.72-3.5,4.16-3.03,9.53-2.62,15.72.66,9.91.03,19.91,1.19,29.77,1.96,16.71-1.11,13.82-.24,41.2,0,0,1.63,51.05-.71,63.35,0,.05-.04.21-.08.42-.35,1.97-1.38,8.08.55,14.82,1.03,3.6,1.94,6.77,4.76,9.29,3.19,2.85,6.91,3.18,11.43,3.57,11.57,1.01,21.34-3.37,26.19-5.6.11-.05.19-.09.25-.11,16.8-7.82,42.63-14.53,42.63-14.53,23.96-6.23,17.53-6.03,43.35-12.86,19.29-5.11,25.75-5.98,32.87-12.86,9.92-9.59,12.08-22.11,12.38-24.05,1.11-7-.13-11.05-1.19-19.05-.88-6.63-.6-17.37,0-38.58.77-27.41,1.16-41.12,2.1-43.25,9.58-21.62,44.04-32.43,71.24-28.8,41.02,5.48,69.75,44.37,76.55,79.58,3.73,19.36.28,34.78-1.52,42.44-11.62,49.49-56.41,89.26-75.79,81.85-6.17-2.36-13.43-10.91-12.88-18.95.36-5.34,4.05-8.66,4.55-9.09,5.13-4.48,13.14-4.07,18.19-.76,1.92,1.26,5.03,3.99,6.82,10.61,4.56,16.82-5.7,35.31-8.34,39.41-26.14,40.61-168.04,9.73-264.5,41.68-20.97,6.95-42.6,17.79-47.75,36.38-.66,2.37-4.18,16.2,3.79,23.49,7.07,6.47,20.93,5.75,28.04-2.27,4.08-4.61,7.01-12.84,3.79-18.19-5.94-9.86-29.26-4.13-47.75-2.27-29.1,2.93-75.54-.79-102.43-21.31-42.15-32.17-56.15-120.79-71.39-132.86-1.3-1.03-13.49-10.12-23.3-15.69,0,0,0,0,0,0-8.5-4.82-14.47-8.75-15.35-9.32-6.52-4.22-21.16-10.04-29.56-12.13-9.98-2.48-14.25-.46-50.78,7.58,0,0-52.43,11.54-62,1.07-.46-.51-.9-1.07-.9-1.07-4.17-5.28-4.56-11.38-4.71-13.25-.47-5.48-1.18-.77-5.7-22.31-4.76-22.69-5.66-35.99-10.68-36.91-1.08-.2-4.45-.2-8.07.83,0,0-1.34.38-2.67.94-5.63,2.37-12.32,9.1-16.2,12.94-8.24,8.15-10.85,10.16-11.63,14.6-.24,1.37-.58,3.43.36,5.58.64,1.46,1.49,2.13,6.88,6.65,2.99,2.51,3.2,2.7,3.49,2.99,2.37,2.32,2.76,3.37,4.98,5.53,1.78,1.73,3.32,2.81,4.11,3.35,2.37,1.64,6.32,4.36,7.71,3.32,1.28-.96.12-4.9-1.07-7.48-3.09-6.67-7.86-7.27-11.51-14.72-1.36-2.78-1.33-3.98-1.31-4.39,0,0,.25-4.04,5.93-9.26.11-.1.55-.49,1.01-1.11.29-.38.46-.69.5-.75,4.83-8.16,11.3-14.16,11.3-14.16,2.38-2.21,4.92-4.09,5.95-7.82.11-.42.18-.73.22-.96,1.21-6.29-2.32-9.4-.59-12.34.83-1.41,2.33-1.89,2.73-2.02,0,0,2.65-.85,6.29,1.42,7.7,4.81,12.3,40.17,14.72,56.72,2.11,14.45,3.86,23.56,7.71,24.09,1.79.25,2.8-1.53,9.61-8.07,5.89-5.65,8.83-8.48,12.82-11.51,7.17-5.46,11.87-7.16,13.17-12.34.19-.76.54-2.21.12-3.92-.84-3.41-3.94-4.75-8.07-7.59-1.52-1.05-4.53-3.74-10.56-9.14-6.64-5.94-8.88-8.57-10.32-7.83-1.42.73-1.01,4.17-.95,4.63.31,2.54,1.53,4.21,3.56,6.88,3.78,4.97,6.71,8.63,8.43,13.05.33.85.8,2.21.47,3.8-.45,2.17-2.13,3.47-3.09,4.27-3.29,2.77-1.51,2.64-7.24,8.9-3.18,3.47-5.36,5.3-7.24,9.37-.2.43-.35.78-.44,1.02,0,0-2.45,6.04-1.57,11.68.19,1.21.33,1.66.33,1.66.18.56.37.93.46,1.6,0,0,.06.42.04.9-.23,6.27-10.31,11.04-10.31,11.04-.13.06-.21.1-.25.12-2.06.94-11.11,4.75-19.7.24-.08-.04-.41-.22-.84-.47-4.68-2.77-6.99-6.63-7.82-7.95-5.49-8.77-15.89-18.46-18.87-21.24-4.73-4.41-6.95-5.67-9.37-6.41-5.84-1.79-13.29-.73-14.36,2.37-.64,1.87,1.18,4.03,2.25,5.34,11.19,13.65,27.05,39.54,28.96,42.96.18.32.68,1.24,1.66,2.14,2.59,2.36,6.11,2.31,7.59,2.37,6.94.3,14.34,5.01,14.12,6.65-.36,2.68-21.7,1.85-34.77.47,0,0-16.09-1.69-27.89-7.71-.86-.44-1.69-.9-1.69-.9-2.02-1.11-3.45-2.06-3.84-2.32-1.92-1.26-3.64-2.14-8.59-4.98-15.39-8.82-11.51-7.6-14.83-9.02-2.15-.92-4.43-1.7-4.87-3.56-.41-1.75,1.03-3.47,1.9-4.51.23-.27,3.96-4.61,9.02-4.51,4.03.08,6.68,2.94,10.32,6.53,7.82,7.68,13.15,12.92,19.82,16.97,7.35,4.47,15.77,7.16,18.28,7.95,4.67,1.47,7.28,1.89,7.24,2.14-.09.51-11.16.5-22.31-4.39,0,0-8.38-3.67-14.24-9.14-.61-.57-1.21-1.13-1.82-1.7,0,0-1.89-1.76-3.4-3.17-2.77-2.58-3.7-3.43-6.53-6.05-2.86-2.65-4.29-3.98-5.22-4.87-4.17-3.95-6.25-5.92-7.4-7.22-.73-.82-1.96-2.25-3.89-4.03-.97-.89-1.76-1.55-2.23-1.93-7.2-5.86-11.51-7.29-12.7-11.63-.12-.42-.68-2.61.24-4.98,1.44-3.73,5.4-4.95,5.93-5.1.71-.21,2.52-.64,7.71.83,4.31,1.22,11.43,3.33,17.8,10.2.03.03-.05-.05,0,0,10.19,10.99,15.67,14.05,21.72,21.12,3.42,4,2.77,4.31,13.65,19.34.94,1.3,3.13,4.26,7,6.65,4.47,2.75,8.99,3.38,9.14,2.97.31-.85-17.37-7.58-25.4-16.73-.76-.87-1.54-1.83-1.54-1.83-4.29-5.29-6.57-9.8-7.83-12.17-4.44-8.38-11.09-18.33-15.19-23.5-.83-1.05-1.66-2.36-3.32-4.98-2.78-4.4-3.5-6.14-2.97-7.83.36-1.15,1.17-1.86,1.54-2.14,1.81-1.37,4.26-.91,6.17-.47,4.58,1.04,7.99,1.82,10.8,3.44,15.96,9.23,61.21,73.94,63.37,79.98.08.23.37,1.12,1.19,1.78,1.15.93,2.55.75,3.8.83,2.24.14,3.13,1.07,5.7,2.25,1.63.75,4.17,1.33,9.26,2.49,6.21,1.42,9.31,2.13,12.46,2.37,3.73.29,6.7.09,8.9-.12,12.74-1.19,39.36-6.05,45.33-7,8.32-1.33,26.23-4.18,43.96,3.04,21.1,8.59,45.84,33.03,47.71,34.89,2.01,2.01,11.47,11.6,17.09,9.26.2-.09.37-.17.48-.23,3.64-1.91,4.36-6.13,5.93-11.88,2.16-7.92,2.7-6.83,4.57-14.42.97-3.95,1.53-7.13,1.84-9.07.68-4.24,2.53-15.82.71-16.38-1.54-.47-5.48,7.01-7.83,12.82-5.01,12.36-3.4,18.48-7.83,20.65-2.72,1.33-6.32-.06-13.53-2.85-4.52-1.75-9.35-3.61-13.69-6.85-1.14-.85-4.28-3.31-9.13-4.8,0,0-.5-.15-.93-.27-3.52-.93-9.71-.46-15.94,2.82-10.11,5.32-19.8,17.75-26.07,23.25-14.53,12.74-32.67,7.53-45.12,9.63-56.3,9.52-44.46,176.69-119.33,207.32-17.69,7.24-44.84,8.74-51.4-1.98-5.62-9.18,2.87-28.92,15.82-35.59,21.08-10.85,53.83,12.98,110.71,61.29,125.54,106.61,175.33,168.3,199.75,155.41,9.59-5.06,16.09-22.06,11.87-33.46-3.53-9.51-15.1-16.66-24.82-15.11-15.46,2.46-22.02,26.23-24.21,34.17-12.34,44.72,17.66,108.99,67.36,143.7,64.02,44.72,158.43,38.81,185.02,4.94,4.44-5.66,23.3-32.88,34.67-29.09.23.08,1.67.87,4.56,2.47,11.6,6.41,13.62,8.13,18.25,9.32,4.79,1.22,9.52,1.14,9.7.38.28-1.25-11.43-5.78-25.29-14.45-1.43-.89-2.7-1.72-2.85-3.04-.36-3.2,6.27-6.24,26.05-16.54,0,0,15.87-8.27,15.43-12.9-.01-.11-.03-.22-.03-.22-.57-3.03-6.55-4.13-8.94-4.56-8.5-1.56-42.3,13.3-67.5,53.24,0,0-13.58,21.53-8.18,29.66,4.14,6.23,10.6,8.71,10.6,8.71s.3.12.62.23c8.41,2.91,22.43-2.28,22.44-2.28,2.17-.8,32.74-12.09,41.64-18.06.97-.65,2.46-1.76,2.28-2.85-.23-1.44-3.2-2.05-3.42-2.09-8.38-1.72-31.63,32.37-23.96,41.64,1.97,2.38,5.34,2.34,10.84,2.28,2.09-.02,27.25-.72,42.02-21.48,2.11-2.97,11.33-15.94,6.65-22.43-3-4.17-10.51-3.97-15.02-2.66-11.75,3.41-14.8,17.73-15.02,18.82-1.65,8.37.36,19.94,7.8,24.53,7.92,4.88,14.13-3.02,24.91-.95,20.71,3.97,24.14,38.18,36.5,37.65,11.42-.49,16.13-30.02,28.52-29.28,4.15.25,10.59,3.98,15.21,6.65,4.63,2.68,7.84,5.21,8.75,4.37.83-.76-.65-3.99-2.28-6.27-5.87-8.22-15.74-7.02-16.16-10.08-.58-4.24,17.72-10.91,38.41-23.77,2.46-1.53,6.98-4.4,6.46-6.84-.61-2.9-7.95-3.61-9.89-3.8-23.77-2.32-56.26,35.95-68.07,61.03-2.86,6.07-9.4,19.97-3.8,26.43,0,0,.27.32.61.63,8.57,7.93,40.27-4.81,40.27-4.81,40.78-16.4,61.5-24.87,77.57-38.41,9.93-8.36,26.48-24.21,23.77-28.33-2.24-3.4-16.87,2.28-24.53,5.89-14.79,6.98-25.66,16.71-38.03,30.8-20.6,23.49-36.82,49.41-34.41,51.33,1.79,1.43,15.32-9.38,29.28-20.53,3.39-2.71,7.38-5.98,13.5-7.03,5.87-1.01,15.03-.2,17.68,5.13,2.25,4.53-1.28,10.12-5.7,17.11-4.34,6.87-9.51,15.05-18.27,17.7-1.88.57-4.49,1.05-4.98,2.76-.63,2.22,2.6,5.49,5.53,7.19,8.53,4.94,18.1-1.38,35.94-2.49,3.52-.22,6.09-.16,8.25,0,4.96.37,7.27,1.2,11.37,1.81,4.98.75,8.69.58,13,.39,12.7-.56,23.73-1.04,27.64-8.02,2.53-4.51,1.8-11.23-1.66-15.2-5.74-6.6-17.51-3.96-24.05-2.49-15.79,3.55-41.85,16.22-41.47,35.38.2,10.21,7.81,17.03,8.57,17.69,13.74,11.96,37.6,2.79,39.72,1.97.71-.27,1.47-.59,1.47-.59,9.24-3.86,14.92-9.02,16.03-9.95,9.85-8.25,52.45-12.6,58.33.55,3.1,6.95-4.8,17.07-11.33,25.43-8.53,10.92-20.25,19.46-21.84,17.97-1.23-1.15,3.35-8.42,6.63-12.44,18.52-22.69,63.34-24.6,69.11-12.72,3.83,7.88-9.37,22.16-15.2,28.47-8.5,9.2-20.06,17.28-21.56,15.76-1.45-1.47,5.19-13.31,15.76-20.18,18.95-12.33,46.9-6.36,48.38.83,1.33,6.49-18.27,17.12-24.88,32.34-.67,1.54-1.65,4.16-.55,6.36,2.16,4.32,10.81,3.99,14.1,3.87,22.16-.84,44.26-17.55,42.85-20.46-.75-1.55-8.5.24-14.1,3.32-2.23,1.23-12.07,6.64-13.82,17.69-.21,1.35-1.75,11.05,3.87,16.03,6.83,6.05,19.45.91,29.86-3.32,8.86-3.6,23.1-9.4,29.03-23.22,1.22-2.86,4.8-11.21.83-16.03-3.5-4.24-11.03-3.57-15.48-1.94-10.72,3.93-13.55,17.05-14.1,20.18-.41,2.33-2.59,14.69,5.53,22.94,4.71,4.79,10.45,5.73,16.03,6.63,4.18.68,19.95,3.24,28.75-6.63,2.2-2.47,5.61-7.56,4.15-9.4-3.06-3.84-29.69,3.76-35.11,22.67-.23.79-3.81,13.96,3.32,20.73,7.75,7.37,22.59,1.88,32.9-1.94,7.74-2.86,21.84-8.31,29.3-22.11,1.13-2.09,7.53-13.93,2.76-19.35-3.87-4.4-12.7-1.83-13.27-1.66-8.89,2.7-14.74,12.11-15.76,20.73-1.47,12.46,6.78,26.47,20.18,29.86,13.66,3.45,28.05-5.31,31.24-15.48.7-2.24,1.66-7.13-.28-8.29-6.4-3.83-39.18,35.92-35.66,39.81,2.16,2.39,18.99-7.63,29.86-14.1,10.12-6.02,17.1-11.14,26.81-10.23,2.51.24,7.09.73,9.95,4.15,5.48,6.55.27,18.66-.28,19.9-4.32,9.74-11.13,10.98-11.33,18.24-.1,3.6,1.43,8.21,4.7,9.95,3.55,1.89,8.82-.67,19.35-5.81,1.9-.93,4.73-2.4,7.98-4.55,1.91-1.26,3.25-2.29,3.36-2.36,4.38-3.28,91.47-33.19,140.57,6.35,48.57,39.11,2.56,99.98,49.69,154.26,53.04,61.08,162.39,42.79,198.78,25.36,2.62-1.25,26.5-12.69,24.85-22.26-1.02-5.91-12.39-14.44-19.25-15.07-.59-.05-2.65-.19-4.4-1.62-2.09-1.7-3.43-4.97-2.32-6.72.78-1.23,2.63-1.49,5.56-1.39,10.09.34,21.45,4.59,25.71,6.25,1.24.49,3.15,1.25,5.56.93,3.76-.5,6.23-3.32,7.64-4.86,3.92-4.27,8.91-7.45,12.97-11.58,6.46-6.56,17.2-17.47,28.49-25.25,1.47-1.01,5.58-3.78,7.41-8.8.42-1.14,1.77-4.85.23-8.11-1.84-3.89-6.83-5.06-8.8-5.56-13.74-3.47-25.81-11.74-38.92-17.14-2.26-.93-12.13-5.08-22.24-12.97-3.37-2.63-6.71-5.64-6.25-8.8.47-3.29,4.82-5.17,6.25-5.79,16.69-7.22,59.39,10.91,86.41,22.01,2.67,1.1,8.71,3.48,15.29,1.62,4.4-1.24,6.6-3.69,10.89-7.64,14.95-13.79,25.42-18.42,29.19-19.92,8.24-3.29,11.73-2.54,13.9-1.39,3.09,1.64,5.52,5.18,5.56,8.8.04,3.24-1.84,5.53-6.25,10.19-8.01,8.47-11.78,11.44-16.91,16.91-5.17,5.51-7.86,8.37-10.19,12.97-2.37,4.68-3.75,9.9-4.17,19.46-.88,19.88,3.39,35.45,6.49,56.06.09.59.58,3.87,1.11,8.19.34,2.74.83,7,1.2,12.19.03.37.04.55.05.68.08,1.32.28,5.37-.97,9.74-1.09,3.78-2.22,7.72-5.33,8.8-2.22.77-4.43-.26-5.33-.69-6.45-3.11-8.65-11.92-9.5-15.52-4.96-21.04-12.92-41.27-18.76-62.08-.65-2.33-2.18-7.56-5.33-8.11-2.05-.35-3.93,1.44-4.86,2.32-9.36,8.8-21.58,18.01-33.13,26.72-1.32.99-1.36.99-3,2.24-1.89,1.43-9.01,6.86-16.91,14.83-1.78,1.79-4.47,4.59-5.33,8.8-.13.61-.18,1.09-.22,1.48-.4,3.69.42,6.02,1.38,10.11,1.56,6.65,1.67,10.34.82,13.31-.13.45-.26.8-.36,1.05-.42,1.06-2.06,5.16-5.79,6.02-3.44.8-6.3-1.69-6.49-1.85-2.68-2.4-3.08-6.25-2.08-9.03,1.08-3.03,3.71-4.48,4.86-5.1,1.88-1,5.46-2.32,14.36-.46,12.5,2.61,22.62,8.78,30.11,13.43,0,0,0,0,0,0,12.29,7.63,27.25,15.92,34.05,19,13.64,6.17,26.98,6.1,41.47,6.02,34.03-.18,62.61-10.89,81.08-19.92"/>
      </g>
    </g>
  </g>
</svg>